<svg preserveAspectRatio="none" width="100%" height="100%" overflow="visible" style="display: block;" viewBox="0 0 80 80" fill="none" xmlns="http://www.w3.org/2000/svg">
<g id="Group 1272636850">
<circle id="Ellipse 14" cx="40" cy="40" r="40" fill="var(--fill-0, #F6F4EF)"/>
<g id="&#232;&#143;&#156;&#229;&#141;&#149;&#230;&#160;&#143;-&#233;&#135;&#135;&#232;&#180;&#173;-&#233;&#135;&#135;&#232;&#180;&#173;&#229;&#156;&#168;&#233;&#128;&#148;&#230;&#177;&#135;&#230;&#128;&#187; 2">
<path id="Vector" d="M28.183 44.8442C28.5709 44.8442 28.9429 44.6902 29.2171 44.4159C29.4914 44.1416 29.6455 43.7696 29.6455 43.3817V34.663C29.6455 34.2751 29.4914 33.9031 29.2171 33.6289C28.9429 33.3546 28.5709 33.2005 28.183 33.2005C27.7951 33.2005 27.4231 33.3546 27.1489 33.6289C26.8746 33.9031 26.7205 34.2751 26.7205 34.663V43.3817C26.7205 44.1895 27.373 44.8442 28.183 44.8442Z" fill="var(--fill-0, #035DFF)"/>
<path id="Vector_2" d="M46.6938 27.7938C46.6938 26.023 45.2583 24.5875 43.4875 24.5875H24.3062C22.5355 24.5875 21.1 26.023 21.1 27.7938V46.975C21.1 48.7458 22.5355 50.1813 24.3062 50.1813H24.6145C24.5965 50.2739 24.5874 50.3681 24.5875 50.4625C24.5875 51.7753 25.109 53.0344 26.0373 53.9627C26.9656 54.891 28.2247 55.4125 29.5375 55.4125C30.8503 55.4125 32.1094 54.891 33.0377 53.9627C33.966 53.0344 34.4875 51.7753 34.4875 50.4625C34.4876 50.3681 34.4785 50.2739 34.4605 50.1813H43.4875C43.5933 50.1813 43.6968 50.1768 43.798 50.1655C43.7782 50.2633 43.7684 50.3628 43.7688 50.4625C43.7689 51.7752 44.2905 53.0342 45.2188 53.9624C46.147 54.8905 47.406 55.412 48.7187 55.412C50.0315 55.412 51.2905 54.8905 52.2187 53.9624C53.147 53.0342 53.6686 51.7752 53.6687 50.4625C53.6687 50.3681 53.6597 50.2739 53.6418 50.1813H57.4375C57.6296 50.1813 57.8197 50.1434 57.9972 50.0699C58.1746 49.9964 58.3358 49.8887 58.4716 49.7529C58.6075 49.6171 58.7152 49.4559 58.7887 49.2784C58.8622 49.101 58.9 48.9108 58.9 48.7188V42.1465C58.8999 41.9443 58.8578 41.7443 58.7765 41.5592C58.6952 41.3741 58.5763 41.2079 58.4275 41.071L52.3255 35.437C52.0557 35.1884 51.7024 35.0503 51.3355 35.05H46.6938V27.7938ZM43.7688 46.9795C43.7676 47.0533 43.7374 47.1237 43.6848 47.1755C43.6322 47.2272 43.5613 47.2563 43.4875 47.2563H24.3062C24.2693 47.2563 24.2327 47.249 24.1986 47.2348C24.1645 47.2207 24.1335 47.2 24.1074 47.1739C24.0813 47.1478 24.0605 47.1168 24.0464 47.0826C24.0323 47.0485 24.025 47.0119 24.025 46.975V27.7938C24.025 27.6363 24.151 27.5125 24.3062 27.5125H43.4875C43.6428 27.5125 43.7688 27.6385 43.7688 27.7938V46.9795ZM46.6938 37.975H50.7617L55.975 42.7855V47.2563H46.6938V46.993V37.975ZM46.6667 50.1813H50.7708C50.7527 50.2739 50.7437 50.3681 50.7437 50.4625C50.7437 50.9996 50.5304 51.5146 50.1506 51.8944C49.7709 52.2742 49.2558 52.4875 48.7187 52.4875C48.1817 52.4875 47.6666 52.2742 47.2869 51.8944C46.9071 51.5146 46.6938 50.9996 46.6938 50.4625C46.6937 50.3681 46.6847 50.2739 46.6667 50.1813ZM31.5895 50.1813C31.5715 50.2739 31.5624 50.3681 31.5625 50.4625C31.5625 50.9996 31.3492 51.5146 30.9694 51.8944C30.5896 52.2742 30.0746 52.4875 29.5375 52.4875C29.0004 52.4875 28.4854 52.2742 28.1056 51.8944C27.7258 51.5146 27.5125 50.9996 27.5125 50.4625C27.5126 50.3681 27.5035 50.2739 27.4855 50.1813H31.5895Z" fill="var(--fill-0, #2B2F36)"/>
</g>
</g>
</svg>
