<svg width="49" height="42" viewBox="0 0 49 42" fill="none" xmlns="http://www.w3.org/2000/svg">
<g id="&#228;&#186;&#186;&#230;&#149;&#176; 1" clip-path="url(#clip0_21246_444)">
<path id="Vector" d="M44.126 20.7525C42.9002 19.7642 41.9197 19.023 40.9391 18.5289C42.41 17.0466 43.8808 14.576 43.8808 11.8583C43.8808 7.16422 39.7134 4.94069 37.5071 4.44657C36.7717 4.19951 36.0362 4.69363 35.7911 5.43481C35.5459 6.17599 36.0362 6.91716 36.7717 7.16422C36.7717 7.16422 40.9391 8.15246 41.1842 12.1054C41.1842 15.0701 38.9779 17.2936 37.7522 17.7878C37.0168 18.0348 36.7717 18.5289 36.7717 19.023C36.7717 19.5172 37.2619 20.0113 37.7522 20.2583C38.2425 20.2583 47.3128 22.4819 46.0871 33.8466C46.0871 34.3407 46.0871 34.5877 46.3323 34.8348C46.5774 35.0819 47.0677 35.3289 47.3128 35.3289C48.0483 35.3289 48.5385 34.8348 48.5385 34.0936C49.5191 26.9289 46.5774 22.7289 44.126 20.7525ZM11.2767 20.2583C11.767 20.0113 12.2573 19.7642 12.2573 19.023C12.2573 18.5289 12.0121 17.7878 11.5219 17.5407C10.051 17.0466 7.84471 14.823 7.84471 11.8583C7.84471 8.15246 12.0121 6.91716 12.2573 6.91716C12.9927 6.6701 13.483 5.92893 13.2379 5.18775C12.9927 4.69363 12.2573 4.19951 11.767 4.44657C9.56071 4.94069 5.39327 7.16422 5.14813 11.8583C5.14813 14.576 6.37384 17.0466 8.08985 18.5289C7.10928 19.023 5.88356 19.7642 4.90298 20.7525C2.45155 22.976 -0.490177 26.9289 0.245254 34.0936C0.245254 34.8348 0.980685 35.3289 1.71612 35.3289C2.45155 35.3289 2.94183 34.5877 2.94183 33.8466C1.71612 22.4819 10.7864 20.2583 11.2767 20.2583Z" fill="#333333"/>
<path id="Vector_2" d="M41.6745 35.3294C41.6745 30.6353 39.9585 26.4353 36.7716 23.4706C35.0556 21.7412 32.8493 20.5059 30.3979 19.7647C33.3396 17.7882 35.3008 14.5765 35.3008 10.8706C35.0556 4.94118 30.3979 0 24.5144 0C18.631 0 13.9733 4.94118 13.9733 10.6235C13.9733 14.3294 15.9344 17.5412 18.631 19.5176C16.1796 20.2588 14.2184 21.4941 12.2573 23.2235C9.07039 26.1882 7.35439 30.3882 7.35439 35.0824V35.8235C7.35439 37.0588 7.10924 38.5412 8.08982 39.5294C8.5801 40.2706 9.56068 40.5176 10.5413 40.5176H38.7328C39.7133 40.5176 40.4488 40.2706 40.9391 39.5294C41.9196 38.5412 41.9196 37.0588 41.6745 35.8235V35.3294ZM16.6698 10.6235C16.6698 6.17647 20.1019 2.71765 24.5144 2.71765C28.927 2.71765 32.359 6.17647 32.359 10.6235C32.359 15.0706 28.927 18.5294 24.5144 18.5294C20.1019 18.5294 16.6698 15.0706 16.6698 10.6235ZM38.9779 38.0471H10.051C9.80582 37.8 9.80582 36.5647 9.80582 36.0706V35.0824C9.80582 27.1765 15.9344 21.2471 24.2693 21.2471C32.6042 21.2471 38.7328 27.1765 38.7328 35.0824V36.0706C38.9779 36.8118 39.2231 37.8 38.9779 38.0471Z" fill="#333333"/>
</g>
<defs>
<clipPath id="clip0_21246_444">
<rect width="49" height="42" fill="white"/>
</clipPath>
</defs>
</svg>
