<svg preserveAspectRatio="none" width="100%" height="100%" overflow="visible" style="display: block;" viewBox="0 0 96 83" fill="none" xmlns="http://www.w3.org/2000/svg">
<g id="&#229;&#140;&#150;&#229;&#183;&#165;&#230;&#150;&#176;&#230;&#157;&#144;&#230;&#150;&#153; 1" clip-path="url(#clip0_0_4)">
<path id="Vector" d="M24.9188 82.9995C24.4705 83.0091 24.0288 82.8896 23.6459 82.6551L1.22428 69.3253C0.847459 69.1187 0.534162 68.8123 0.3184 68.4395C0.102639 68.0666 -0.00734411 67.6415 0.000391745 67.2102V40.9932C0.0173583 40.5491 0.153773 40.1179 0.395135 39.7455C0.636498 39.3731 0.973787 39.0733 1.37115 38.8781L23.9397 26.0401C24.3118 25.8243 24.7339 25.7107 25.1636 25.7107C25.5932 25.7107 26.0153 25.8243 26.3875 26.0401L48.956 39.37C49.3274 39.5789 49.6338 39.8872 49.8412 40.2606C50.0486 40.634 50.1489 41.0578 50.1309 41.4851V67.7021C50.1286 68.1373 50.009 68.5637 49.7849 68.936C49.5608 69.3084 49.2405 69.6129 48.8581 69.8172L26.0937 82.7043C25.7329 82.9 25.3289 83.0015 24.9188 82.9995ZM4.89595 65.833L24.9188 77.7364L45.0395 66.2265V42.8623L25.1146 31.0081L4.89595 42.4688V65.833Z" fill="var(--fill-0, #333333)"/>
<path id="Vector_2" d="M70.8881 57.3235C70.4398 57.3331 69.9981 57.2136 69.6152 56.9792L47.1936 43.6493C46.8168 43.4427 46.5035 43.1364 46.2877 42.7635C46.0719 42.3906 45.962 41.9655 45.9697 41.5343V15.3172C45.9723 14.888 46.0866 14.467 46.3013 14.0959C46.516 13.7249 46.8236 13.4168 47.1936 13.2022L69.909 0.314998C70.2841 0.108337 70.705 2.59827e-06 71.1329 2.59827e-06C71.5607 2.59827e-06 71.9816 0.108337 72.3568 0.314998L94.8274 13.6449C95.1988 13.8537 95.5052 14.162 95.7126 14.5354C95.92 14.9088 96.0203 15.3327 96.0023 15.7599V41.9769C95.9997 42.4061 95.8854 42.8272 95.6707 43.1982C95.456 43.5693 95.1484 43.8774 94.7784 44.092L72.1609 56.9792C71.776 57.2087 71.3357 57.3278 70.8881 57.3235ZM50.8653 40.157L70.8881 52.0604L91.0088 40.5505V17.1864L71.0839 5.33214L51.0121 16.7929L50.8653 40.157ZM22.4221 8.23421H27.3176V28.4503H22.4221V8.23421Z" fill="var(--fill-0, #333333)"/>
<path id="Vector_3" d="M68.6851 54.7166H73.5806V74.9327H68.6851V54.7166ZM11.7057 59.8075L14.1926 55.5724L27.5575 63.4916L25.0754 67.7316L11.7057 59.8075ZM65.0134 22.1543L67.5053 17.9143L80.8701 25.8385L78.3832 30.0735L65.0134 22.1543Z" fill="var(--fill-0, #333333)"/>
</g>
<defs>
<clipPath id="clip0_0_4">
<rect width="96" height="83" fill="white"/>
</clipPath>
</defs>
</svg>
