<svg width="38" height="38" viewBox="0 0 38 38" fill="none" xmlns="http://www.w3.org/2000/svg">
<g id="&#229;&#149;&#164;&#233;&#133;&#146; 1">
<path id="Vector" d="M31.3226 17.2165H27.4609V15.9293C27.7023 15.7952 27.9168 15.6343 28.1313 15.4466C30.0085 13.8108 29.7135 12.2285 29.5258 11.6386C29.2577 10.8609 28.6409 10.2441 27.89 9.89545C28.1313 8.82276 28.2386 7.10646 27.0318 5.81923C26.0932 4.82699 24.6719 4.31747 23.197 4.45155C22.7679 4.50519 22.3924 4.58564 22.0706 4.71972C21.4538 4.04929 20.408 3.13751 18.933 2.89615C17.4044 2.6548 15.8222 3.13751 14.2132 4.3711C13.5428 4.12974 12.3628 3.86157 11.2097 4.34428C10.1638 4.77336 9.41291 5.68514 8.9302 7.026C7.40162 7.6428 5.25624 9.33229 5.84622 12.2822C6.16802 13.8912 7.05299 15.2053 8.25977 15.9561V34.2187C8.25977 34.7282 8.68884 35.1573 9.19837 35.1573H26.5491C27.0586 35.1573 27.4877 34.7282 27.4877 34.2187V30.9201H31.3494C31.8589 30.9201 32.288 30.4911 32.288 29.9815V18.1552C32.2612 17.6456 31.8589 17.2165 31.3226 17.2165ZM9.94925 8.66186C10.2442 8.5814 10.4856 8.34005 10.5929 8.01824C10.8879 6.97237 11.3437 6.32876 11.9337 6.0874C12.8187 5.71196 13.8914 6.27512 13.9182 6.27512C14.2668 6.46284 14.6691 6.40921 14.9641 6.16785C16.2781 5.04153 17.5117 4.55882 18.6112 4.74654C20.1666 4.9879 21.0784 6.46284 21.0784 6.46284C21.2393 6.73101 21.5343 6.91874 21.8561 6.91874C22.1779 6.91874 22.4461 6.75783 22.6338 6.51648C22.9288 6.27512 24.6451 6.00695 25.691 7.07964C26.71 8.17914 25.8787 10.1636 25.8787 10.1636C25.7446 10.4318 25.7714 10.7804 25.9323 11.0218C26.0932 11.2899 26.3614 11.4508 26.6832 11.4508C27.1659 11.4777 27.6486 11.7995 27.7827 12.2285C27.9704 12.7381 27.6754 13.3817 26.9246 14.0253C26.4687 14.4007 26.0396 14.5885 25.6105 14.5348C24.7792 14.4544 24.0283 13.623 23.8138 13.3012C23.5188 12.899 22.9556 12.7917 22.5265 13.0599C21.5343 13.7303 20.7834 13.2208 20.6761 13.1135C20.4348 12.9258 20.1398 12.8453 19.8448 12.9258C19.5498 13.0062 19.3085 13.194 19.2012 13.489C19.2012 13.5158 18.5308 15.098 16.9754 15.098C15.3127 15.098 14.1864 13.489 14.1864 13.489C14.0255 13.2476 13.7573 13.0867 13.4623 13.0867H13.4087C13.1405 13.0867 12.8723 13.2208 12.6846 13.4353C11.8265 14.4812 10.8342 14.9103 9.8688 14.6689C8.7693 14.4007 7.91114 13.3281 7.64297 11.9336C7.2139 9.57364 9.68108 8.74231 9.94925 8.66186ZM25.6105 33.3069H10.137V16.5729C11.2901 16.6534 12.4433 16.2511 13.4087 15.393C14.1327 16.0902 15.3663 16.9752 17.0022 16.9752C18.7721 16.9752 19.8716 15.8757 20.4348 15.0712C21.0784 15.2857 21.9097 15.3662 22.8215 14.9907C23.3579 15.5271 24.2428 16.2243 25.396 16.3584H25.6105V33.3069ZM30.4108 29.0966H27.4877V19.0938H30.4108V29.0966ZM13.1941 19.791C12.6846 19.791 12.2555 20.2201 12.2555 20.7296V30.1693C12.2555 30.6788 12.6846 31.1079 13.1941 31.1079C13.7037 31.1079 14.1327 30.6788 14.1327 30.1693V20.7028C14.1327 20.1933 13.7037 19.791 13.1941 19.791ZM17.6726 19.791C17.1631 19.791 16.734 20.2201 16.734 20.7296V30.1693C16.734 30.6788 17.1631 31.1079 17.6726 31.1079C18.1821 31.1079 18.6112 30.6788 18.6112 30.1693V20.7028C18.6112 20.1933 18.1821 19.791 17.6726 19.791ZM22.1511 19.791C21.6416 19.791 21.2125 20.2201 21.2125 20.7296V30.1693C21.2125 30.6788 21.6416 31.1079 22.1511 31.1079C22.6606 31.1079 23.0897 30.6788 23.0897 30.1693V20.7028C23.0629 20.1933 22.6606 19.791 22.1511 19.791Z" fill="#73624A"/>
</g>
</svg>
