<svg preserveAspectRatio="none" width="100%" height="100%" overflow="visible" style="display: block;" viewBox="0 0 80 80" fill="none" xmlns="http://www.w3.org/2000/svg">
<g id="Group 1272636850">
<circle id="Ellipse 14" cx="40" cy="40" r="40" fill="var(--fill-0, #F6F4EF)"/>
<g id="&#230;&#144;&#173;&#233;&#133;&#141; 1">
<path id="Vector" d="M57.9601 33.3217L57.6456 31.7146C57.4991 31.0786 49.4095 32.4007 39.577 34.6673C29.7447 36.9339 21.8931 39.2873 22.0398 39.9232L22.3623 41.4699C22.3532 41.4916 22.35 41.5116 22.3542 41.5301C22.3583 41.5474 22.3691 41.563 22.3849 41.5774C22.9431 42.0932 30.8577 40.7826 40.4228 38.5775C50.255 36.3107 58.1066 33.9576 57.96 33.3216L57.9601 33.3217Z" fill="var(--fill-0, black)"/>
<path id="Vector_2" d="M52.4503 25.6907L51.7983 22.8689L51.1332 19.9243C50.7807 18.382 44.329 18.5395 36.7222 20.2761C29.1158 22.0127 23.2349 24.6709 23.5867 26.2132L24.3837 29.5426L25.0658 32.5362L52.4502 25.6907L52.4503 25.6907Z" fill="var(--fill-0, black)"/>
<path id="Vector_3" d="M53.4303 29.9335L26.0247 36.7453L26.416 38.4634L53.926 32.0793L53.4303 29.9335Z" fill="var(--fill-0, black)"/>
<path id="Vector_4" d="M53.135 51.4775C50.4103 50.8836 44.1046 51.268 43.1092 51.4775C42.1135 51.6871 41.3449 52.4731 41.3449 52.4731H38.6551C38.6551 52.4731 37.8865 51.6872 36.8909 51.4775C35.8953 51.268 29.5898 50.8836 26.8651 51.4775C26.8651 51.4775 25.1883 51.8068 24.9265 51.8167V53.3988L25.6425 54.2371C25.6425 54.2371 26.079 57.8352 26.673 58.8134C27.2669 59.7916 27.4765 61.1366 31.7382 61.1366C36.0002 61.1366 36.1923 60.5078 37.3451 58.3768C38.4979 56.2458 38.236 54.3943 40 54.3943C41.764 54.3943 41.5022 56.2458 42.6549 58.3768C43.8077 60.5078 43.9999 61.1366 48.2618 61.1366C52.5237 61.1366 52.733 59.7916 53.327 58.8134C53.921 57.8352 54.3575 54.2371 54.3575 54.2371L55.0735 53.3988V51.8167C54.8117 51.8068 53.135 51.4775 53.135 51.4775ZM25.4334 53.4821C25.3025 53.4821 25.1962 53.376 25.1962 53.2449C25.1962 53.1138 25.3025 53.0077 25.4334 53.0077C25.5645 53.0077 25.6706 53.1138 25.6706 53.2449C25.6706 53.376 25.5644 53.4821 25.4334 53.4821ZM25.4334 52.4899C25.3025 52.4899 25.1962 52.3838 25.1962 52.2527C25.1962 52.1216 25.3025 52.0155 25.4334 52.0155C25.5645 52.0155 25.6706 52.1216 25.6706 52.2527C25.6706 52.3838 25.5644 52.4899 25.4334 52.4899ZM33.8128 60.0046C33.1643 60.0046 32.7056 60.0046 32.3874 60.0046H31.4287C31.1105 60.0046 30.6515 60.0046 30.0031 60.0046C26.4393 60.0046 26.5345 54.7542 26.5345 54.7542C26.5345 51.9508 29.2665 52.3071 29.2665 52.3071H34.5493C34.5493 52.3071 37.2814 51.9508 37.2814 54.7542C37.2814 54.7542 37.3765 60.0046 33.8128 60.0046ZM49.9867 60.0046C49.3384 60.0046 48.8794 60.0046 48.5611 60.0046H47.6024C47.2842 60.0046 46.8254 60.0046 46.1769 60.0046C42.6133 60.0046 42.7084 54.7542 42.7084 54.7542C42.7084 51.9508 45.4407 52.3071 45.4407 52.3071H50.7233C50.7233 52.3071 53.4555 51.9508 53.4555 54.7542C53.4554 54.7542 53.5505 60.0046 49.9867 60.0046ZM54.5725 53.4821C54.4414 53.4821 54.3353 53.376 54.3353 53.2449C54.3353 53.1138 54.4414 53.0077 54.5725 53.0077C54.7036 53.0077 54.8097 53.1138 54.8097 53.2449C54.8097 53.376 54.7035 53.4821 54.5725 53.4821ZM54.5725 52.4899C54.4414 52.4899 54.3353 52.3838 54.3353 52.2527C54.3353 52.1216 54.4414 52.0155 54.5725 52.0155C54.7036 52.0155 54.8097 52.1216 54.8097 52.2527C54.8097 52.3838 54.7035 52.4899 54.5725 52.4899Z" fill="var(--fill-0, black)"/>
</g>
</g>
</svg>
