<svg preserveAspectRatio="none" width="100%" height="100%" overflow="visible" style="display: block;" viewBox="0 0 90 83" fill="none" xmlns="http://www.w3.org/2000/svg">
<g id="&#228;&#189;&#142;&#228;&#187;&#183;&#232;&#181;&#183;&#233;&#128;&#129; 1" clip-path="url(#clip0_0_8)">
<path id="Vector" d="M38.3883 83C36.6949 82.9989 35.0203 82.6469 33.4713 81.9667C31.9222 81.2865 30.5327 80.2928 29.3913 79.0491L29.2413 78.8851L6.1939 71.684C3.93503 70.9468 2.06143 69.3506 0.982505 67.2442C-0.0964252 65.1378 -0.292975 62.6925 0.435802 60.4425L14.4112 17.683C14.8813 16.2573 15.7045 14.9721 16.805 13.9456C17.9056 12.9191 19.2481 12.1843 20.7091 11.8088L43.9365 6.7397L51.434 1.95386C53.3002 0.753366 55.4597 0.0802964 57.6812 0.00675826C59.9027 -0.0667799 62.1025 0.461984 64.0448 1.5364L64.6746 1.90913L84.3182 14.3583C86.066 15.4607 87.5024 16.988 88.4915 18.7958C89.4807 20.6037 89.99 22.6324 89.9713 24.6903V70.8192C89.9733 72.4194 89.6577 74.0042 89.0428 75.4829C88.4278 76.9617 87.5255 78.3052 86.3875 79.4367C85.2495 80.5682 83.8982 81.4653 82.4109 82.0768C80.9237 82.6882 79.3297 83.002 77.7203 83H38.3883ZM34.4896 18.5477C33.4393 19.2115 32.5741 20.1277 31.974 21.2117C31.3738 22.2957 31.058 23.5126 31.0557 24.75V70.8192C31.0791 72.7654 31.867 74.6253 33.2512 76.0015C34.6353 77.3777 36.5059 78.1611 38.4633 78.1843H77.7203C79.6933 78.1845 81.5868 77.4114 82.9903 76.0327C84.3938 74.654 85.1942 72.7808 85.2179 70.8192V24.75C85.2184 23.512 84.9037 22.2941 84.3033 21.2097C83.7029 20.1252 82.8362 19.2095 81.784 18.5477L62.0505 6.0837C60.8572 5.34023 59.4775 4.94592 58.0693 4.94592C56.6611 4.94592 55.2814 5.34023 54.0881 6.0837L34.4896 18.5477ZM21.9537 16.4456C21.2599 16.5999 20.6184 16.9314 20.0926 17.4072C19.5667 17.883 19.1745 18.4867 18.9547 19.159L5.05428 61.9334C4.88109 62.4472 4.81207 62.99 4.8512 63.5306C4.89033 64.0711 5.03684 64.5985 5.28225 65.0824C5.52767 65.5662 5.86712 65.9969 6.28098 66.3495C6.69485 66.7021 7.17491 66.9697 7.69341 67.1367L26.2873 73.1003L26.1973 71.848V24.6903C26.1908 21.6395 27.3359 18.6973 29.4063 16.4456L31.2506 14.4626L21.9537 16.4456ZM70.9126 69.9843C69.731 69.9844 68.561 69.7531 67.4693 69.3036C66.3776 68.8541 65.3857 68.1952 64.5502 67.3645C63.7146 66.5339 63.0518 65.5477 62.5996 64.4623C62.1474 63.3769 61.9147 62.2136 61.9147 61.0388C61.9147 59.864 62.1474 58.7007 62.5996 57.6153C63.0518 56.53 63.7146 55.5438 64.5502 54.7131C65.3857 53.8824 66.3776 53.2235 67.4693 52.774C68.561 52.3245 69.731 52.0932 70.9126 52.0933C73.2987 52.0933 75.5872 53.0358 77.2744 54.7134C78.9617 56.391 79.9096 58.6663 79.9096 61.0388C79.9096 63.4113 78.9617 65.6866 77.2744 67.3642C75.5872 69.0418 73.2987 69.9843 70.9126 69.9843ZM70.9126 56.9537C70.0904 56.9389 69.2824 57.168 68.5916 57.6117C67.9009 58.0554 67.3588 58.6937 67.0345 59.445C66.7101 60.1964 66.6183 61.0268 66.7706 61.8303C66.923 62.6337 67.3126 63.3739 67.8898 63.9563C68.467 64.5386 69.2056 64.9368 70.0114 65.1001C70.8172 65.2633 71.6537 65.1841 72.414 64.8727C73.1744 64.5613 73.8242 64.0317 74.2805 63.3515C74.7369 62.6713 74.9791 61.8714 74.9762 61.0537C74.9764 59.9766 74.5501 58.9427 73.7897 58.1755C73.0293 57.4083 71.9958 56.9694 70.9126 56.9537ZM47.9851 63.6777C47.6606 63.6793 47.3391 63.6153 47.0401 63.4898C46.7411 63.3642 46.4709 63.1796 46.2457 62.9472C45.8398 62.5329 45.5968 61.9876 45.561 61.4103C45.5253 60.833 45.699 60.2621 46.0508 59.8014L46.2757 59.5479L69.4281 36.558C69.8874 36.1127 70.5035 35.8634 71.145 35.8634C71.7865 35.8634 72.4027 36.1127 72.8619 36.558C73.2624 36.9753 73.5015 37.5199 73.5372 38.0955C73.5729 38.6712 73.4028 39.2408 73.0569 39.7038L72.8319 39.9722L49.6946 62.9919C49.4692 63.2126 49.2021 63.3869 48.9087 63.5046C48.6154 63.6223 48.3015 63.6811 47.9851 63.6777ZM47.9851 47.2777C46.2057 47.2777 44.4662 46.753 42.9867 45.7701C41.5071 44.7871 40.3539 43.3901 39.673 41.7555C38.992 40.1209 38.8138 38.3223 39.161 36.587C39.5081 34.8518 40.365 33.2578 41.6233 32.0068C42.8815 30.7557 44.4846 29.9037 46.2299 29.5586C47.9752 29.2134 49.7842 29.3906 51.4282 30.0676C53.0721 30.7447 54.4773 31.8913 55.4659 33.3623C56.4545 34.8334 56.9822 36.5629 56.9822 38.3322C56.9922 39.5097 56.7663 40.6774 56.3177 41.7672C55.8691 42.857 55.2067 43.8471 54.3693 44.6798C53.5318 45.5124 52.536 46.171 51.4399 46.617C50.3439 47.063 49.1694 47.2876 47.9851 47.2777ZM47.9851 34.2471C47.1696 34.2471 46.3723 34.4875 45.6942 34.9381C45.016 35.3886 44.4875 36.0289 44.1754 36.7781C43.8633 37.5273 43.7816 38.3516 43.9407 39.147C44.0998 39.9423 44.4926 40.6728 45.0693 41.2462C45.646 41.8196 46.3807 42.2101 47.1807 42.3683C47.9806 42.5265 48.8097 42.4453 49.5632 42.135C50.3167 41.8247 50.9607 41.2992 51.4138 40.6249C51.8669 39.9507 52.1088 39.158 52.1088 38.3471C52.1187 37.8024 52.0194 37.2613 51.8167 36.7552C51.6139 36.2491 51.3117 35.7883 50.9278 35.3996C50.5439 35.011 50.086 34.7023 49.5807 34.4916C49.0754 34.2809 48.533 34.1724 47.9851 34.1725V34.2471Z" fill="var(--fill-0, #333333)"/>
</g>
<defs>
<clipPath id="clip0_0_8">
<rect width="90" height="83" fill="white"/>
</clipPath>
</defs>
</svg>
