<svg width="49" height="49" viewBox="0 0 49 49" fill="none" xmlns="http://www.w3.org/2000/svg">
<g id="Sphere (&#229;&#156;&#134;&#231;&#144;&#131;)">
<path id="Vector" d="M24.4999 32.6663C35.7757 32.6663 44.9166 29.01 44.9166 24.4997C44.9166 19.9893 35.7757 16.333 24.4999 16.333C13.2241 16.333 4.08325 19.9893 4.08325 24.4997C4.08325 29.01 13.2241 32.6663 24.4999 32.6663Z" stroke="#333333" stroke-width="2" stroke-linecap="round" stroke-linejoin="round"/>
<path id="Vector_2" d="M32.6666 24.4997C32.6666 35.7755 29.0103 44.9163 24.4999 44.9163C19.9896 44.9163 16.3333 35.7755 16.3333 24.4997C16.3333 13.2239 19.9896 4.08301 24.4999 4.08301C29.0103 4.08301 32.6666 13.2239 32.6666 24.4997Z" stroke="#333333" stroke-width="2" stroke-linecap="round" stroke-linejoin="round"/>
<path id="Vector_3" d="M24.4999 44.9163C35.7757 44.9163 44.9166 35.7755 44.9166 24.4997C44.9166 13.2239 35.7757 4.08301 24.4999 4.08301C13.2241 4.08301 4.08325 13.2239 4.08325 24.4997C4.08325 35.7755 13.2241 44.9163 24.4999 44.9163Z" stroke="#333333" stroke-width="2" stroke-linejoin="round"/>
</g>
</svg>
