<svg preserveAspectRatio="none" width="100%" height="100%" overflow="visible" style="display: block;" viewBox="0 0 80 80" fill="none" xmlns="http://www.w3.org/2000/svg">
<g id="Group 1272636850">
<circle id="Ellipse 14" cx="40" cy="40" r="40" fill="var(--fill-0, #F6F4EF)"/>
<g id="&#231;&#155;&#190;&#231;&#137;&#140;&#228;&#191;&#157;&#233;&#153;&#169;&#232;&#180;&#168;&#233;&#135;&#143;_o 1">
<path id="Vector" d="M45.625 42.25H46.75V44.5H41.125C37.975 44.5 35.5 42.025 35.5 38.875V36.625C35.5 33.475 37.975 31 41.125 31C44.275 31 46.75 33.475 46.75 36.625V38.875C46.75 40.225 46.3 41.35 45.625 42.25ZM41.125 19.75C47.425 23.125 52.6 26.05 58 28.75C58 40.675 52.375 52.825 41.125 60.25C29.875 52.825 24.25 40.675 24.25 28.75C29.2 26.05 34.825 23.125 41.125 19.75ZM37.525 24.25C36.4 24.925 36.4 24.925 35.275 25.375C34.375 25.825 33.925 26.05 33.25 26.5C30.55 27.85 28.3 28.975 26.5 30.1C26.95 40.9 32.125 51.025 41.125 57.55C50.125 51.025 55.3 40.9 55.75 30.1C54.4 29.425 52.825 28.525 51.025 27.625C49.225 26.725 43.6 23.575 41.125 22.225C40 22.9 38.875 23.575 37.525 24.25ZM41.125 33.25C39.325 33.25 37.75 34.825 37.75 36.625V38.875C37.75 40.675 39.325 42.25 41.125 42.25C42.925 42.25 44.5 40.675 44.5 38.875V36.625C44.5 34.825 42.925 33.25 41.125 33.25Z" fill="var(--fill-0, #444444)"/>
</g>
</g>
</svg>
