<svg preserveAspectRatio="none" width="100%" height="100%" overflow="visible" style="display: block;" viewBox="0 0 83 83" fill="none" xmlns="http://www.w3.org/2000/svg">
<g id="&#230;&#156;&#128;&#228;&#189;&#142; 1">
<path id="Vector" d="M0.506236 29.7264H8.11002V71.9907H0.506236V29.7264ZM23.7066 38.3017H31.3289V71.9907H23.7066V38.3017ZM46.9254 49.417H54.5199V72H46.9254V49.417ZM70.1165 53.3292H77.7295V71.9815H70.1165V53.3292ZM82.5641 43.9567C83.2679 42.8442 83.1105 41.3702 82.1565 40.4246L53.5938 11.8343C52.4824 10.7219 50.6764 10.7219 49.565 11.8343C48.4536 12.9468 48.4536 14.7546 49.565 15.867L69.2737 35.5947L3.78485 12.6131C2.30299 12.0846 0.682207 12.8726 0.163557 14.3559C-0.216169 15.4313 0.0894641 16.5809 0.830393 17.3318C1.12676 17.6284 1.48797 17.8695 1.914 17.9992L79.1836 45.1526C80.4432 45.579 81.8509 45.0877 82.5641 43.9567Z" fill="var(--fill-0, #333333)"/>
</g>
</svg>
