<svg preserveAspectRatio="none" width="100%" height="100%" overflow="visible" style="display: block;" viewBox="0 0 83 83" fill="none" xmlns="http://www.w3.org/2000/svg">
<g id="&#230;&#156;&#128;&#228;&#189;&#142;&#230;&#176;&#148;&#229;&#142;&#139; 1" clip-path="url(#clip0_0_10)">
<path id="Vector" d="M41.5 4.88235C47.8471 4.88235 54.1941 6.59118 59.8088 9.76471C68.3529 14.6471 74.4559 22.4588 76.8971 31.9794C79.3382 41.5 78.1176 51.2647 73.2353 59.8088C66.6441 71.0382 54.4382 78.1176 41.5 78.1176C35.1529 78.1176 28.8059 76.4088 23.1912 73.2353C14.6471 68.3529 8.54412 60.5412 6.10294 51.0206C3.66177 41.5 4.88235 31.7353 9.76471 23.1912C16.3559 11.9618 28.5618 4.88235 41.5 4.88235ZM41.5 0C27.0971 0 13.1824 7.32353 5.61471 20.75C-5.85882 40.5235 0.97647 65.9118 20.75 77.3853C27.3412 81.0471 34.4206 83 41.5 83C55.9029 83 69.8176 75.6765 77.3853 62.25C88.8588 42.4765 82.0235 17.0882 62.25 5.61471C55.6588 1.70882 48.5794 0 41.5 0Z" fill="var(--fill-0, #333333)"/>
<path id="Vector_2" d="M42.4765 6.83529C41.0118 6.83529 40.0353 7.81176 40.0353 9.27647V11.7176H44.9176V9.27647C44.9176 7.81176 43.9412 6.83529 42.4765 6.83529ZM26.6088 10.9853C26.1206 10.9853 25.8765 10.9853 25.3882 11.2294C24.1676 11.9618 23.9235 13.4265 24.4118 14.6471L25.6324 16.8441L29.7824 14.4029L28.8059 12.2059C28.3176 11.4735 27.5853 10.9853 26.6088 10.9853ZM15.1353 22.7029C14.4029 22.7029 13.4265 23.1912 12.9382 23.9235C12.2059 25.1441 12.6941 26.6088 13.9147 27.3412L16.1118 28.5618L18.5529 24.4118L16.3559 22.9471C15.8676 22.7029 15.3794 22.7029 15.1353 22.7029ZM13.1824 38.5706H10.7412C9.27647 38.5706 8.3 39.5471 8.3 41.0118C8.3 42.4765 9.27647 43.4529 10.7412 43.4529H13.1824V38.5706ZM15.8676 53.4618L13.6706 54.6824C12.45 55.4147 12.2059 56.8794 12.6941 58.1C13.1824 58.8324 13.9147 59.3206 14.8912 59.3206C15.3794 59.3206 15.6235 59.3206 16.1118 59.0765L18.3088 57.8559L15.8676 53.4618ZM58.3441 10.9853C57.6118 10.9853 56.6353 11.4735 56.1471 12.2059L54.9265 14.4029L59.0765 16.8441L60.5412 14.6471C61.2735 13.4265 60.7853 11.9618 59.5647 11.2294C59.3206 10.9853 58.8324 10.9853 58.3441 10.9853ZM70.0618 22.7029C69.5735 22.7029 69.3294 22.7029 68.8412 22.9471L66.6441 24.1676L69.0853 28.3176L71.2824 27.0971C72.5029 26.3647 72.7471 24.9 72.2588 23.6794C71.5265 22.9471 70.7941 22.7029 70.0618 22.7029ZM74.2118 38.5706H71.7706V43.4529H74.2118C75.6765 43.4529 76.6529 42.4765 76.6529 41.0118C76.6529 39.5471 75.6765 38.5706 74.2118 38.5706ZM69.0853 53.4618L66.6441 57.6118L68.8412 58.8323C69.3294 59.0765 69.5735 59.0765 70.0618 59.0765C70.7941 59.0765 71.7706 58.5882 72.2588 57.8559C72.9912 56.6353 72.5029 55.1706 71.2824 54.4382L69.0853 53.4618ZM48.5794 37.8382C47.1147 35.3971 44.1853 34.6647 41.9882 36.1294L27.3412 46.3824C25.8765 47.3588 25.1441 49.3118 26.1206 50.7765C27.0971 52.2412 29.05 52.9735 30.5147 51.9971L46.8706 44.4294C49.0677 43.2088 49.8 40.2794 48.5794 37.8382Z" fill="var(--fill-0, #333333)"/>
</g>
<defs>
<clipPath id="clip0_0_10">
<rect width="83" height="83" fill="white"/>
</clipPath>
</defs>
</svg>
