<svg preserveAspectRatio="xMidYMid meet" width="186" height="60" overflow="visible" style="display: block;" viewBox="0 0 186 60" fill="none" xmlns="http://www.w3.org/2000/svg">
<g id="Placeholder company logos">
<g id="Vector">
<path d="M25.0909 45.0909C33.4256 45.0909 40.1818 38.3347 40.1818 30V19.4364C40.1818 18.2357 39.7048 17.0841 38.8558 16.2351C38.0068 15.3861 36.8552 14.9091 35.6545 14.9091H25.8454V21.5295C25.8454 23.0401 25.9375 24.605 26.7298 25.8908C27.297 26.8122 28.0557 27.6009 28.9545 28.2033C29.8534 28.8057 30.8713 29.2077 31.9392 29.382L32.2281 29.4288C32.3473 29.4696 32.4507 29.5465 32.5239 29.6489C32.5972 29.7514 32.6365 29.8741 32.6365 30C32.6365 30.1259 32.5972 30.2487 32.5239 30.3511C32.4507 30.4535 32.3473 30.5305 32.2281 30.5712L31.9392 30.618C30.3789 30.8729 28.9381 31.6114 27.8202 32.7293C26.7023 33.8472 25.9638 35.288 25.7089 36.8483L25.6621 37.1373C25.6214 37.2564 25.5444 37.3598 25.442 37.4331C25.3396 37.5063 25.2168 37.5457 25.0909 37.5457C24.965 37.5457 24.8422 37.5063 24.7398 37.4331C24.6374 37.3598 24.5604 37.2564 24.5197 37.1373L24.4729 36.8483C24.2985 35.7804 23.8965 34.7625 23.2941 33.8637C22.6917 32.9649 21.9031 32.2061 20.9816 31.6389C19.6959 30.8466 18.131 30.7546 16.6204 30.7546H10.0181C10.4127 38.7384 17.0097 45.0909 25.0909 45.0909Z" fill="var(--fill-0, #042F0E)"/>
<path d="M10 29.2454H16.6204C18.131 29.2454 19.6959 29.1534 20.9817 28.3611C21.9867 27.7418 22.8328 26.8958 23.452 25.8907C24.2443 24.605 24.3364 23.04 24.3364 21.5294V14.9091H14.5273C13.3266 14.9091 12.175 15.386 11.326 16.2351C10.477 17.0841 10 18.2356 10 19.4363V29.2454ZM45.0524 16.4182C45.0524 16.8184 44.8934 17.2022 44.6104 17.4852C44.3274 17.7683 43.9436 17.9272 43.5433 17.9272C43.1431 17.9272 42.7592 17.7683 42.4762 17.4852C42.1932 17.2022 42.0342 16.8184 42.0342 16.4182C42.0342 16.0179 42.1932 15.6341 42.4762 15.3511C42.7592 15.0681 43.1431 14.9091 43.5433 14.9091C43.9436 14.9091 44.3274 15.0681 44.6104 15.3511C44.8934 15.6341 45.0524 16.0179 45.0524 16.4182ZM169.746 24.0421C173.964 24.0421 176 26.9886 176 30.4014V36.8113H171.585V31.162C171.585 29.6152 171.021 28.3385 169.402 28.3385C167.784 28.3385 167.244 29.6152 167.244 31.162V36.8105H162.829V31.162C162.829 29.6152 162.29 28.3385 160.671 28.3385C159.052 28.3385 158.488 29.6152 158.488 31.162V36.8105H154.074V30.4006C154.074 26.9878 156.109 24.0413 160.327 24.0413C162.633 24.0413 164.301 24.9498 165.061 26.4476C165.87 24.9498 167.637 24.0406 169.746 24.0406V24.0421ZM146.14 32.8823C147.563 32.8823 148.176 31.5807 148.176 30.0332V24.5325H152.59V30.5734C152.59 34.1832 150.481 37.1795 146.14 37.1795C141.799 37.1795 139.69 34.1839 139.69 30.5734V24.5325H144.105V30.0332C144.105 31.58 144.717 32.8823 146.14 32.8823ZM133.198 37.2036C130.427 37.2036 128.636 36.2461 127.582 34.3801L130.77 32.5873C131.212 33.3728 131.873 33.7659 132.977 33.7659C133.885 33.7659 134.302 33.4467 134.302 33.0536C134.302 31.5558 127.827 33.0785 127.827 28.3151C127.827 26.0062 129.789 24.1402 133.124 24.1402C136.043 24.1402 137.637 25.564 138.349 26.9395L135.16 28.7565C134.891 28.02 134.056 27.5779 133.223 27.5779C132.585 27.5779 132.242 27.848 132.242 28.2162C132.242 29.7389 138.716 28.3392 138.716 32.9555C138.716 35.5338 136.19 37.2036 133.198 37.2036ZM117.774 42.459H113.359V30.6474C113.359 26.8897 116.18 24.1643 120.104 24.1643C123.93 24.1643 126.849 27.0867 126.849 30.6474C126.849 34.5763 124.249 37.1795 120.349 37.1795C119.442 37.1795 118.535 36.9093 117.774 36.4913V42.459ZM120.104 33.0295C121.502 33.0295 122.434 31.949 122.434 30.6715C122.434 29.3707 121.502 28.3143 120.104 28.3143C118.706 28.3143 117.774 29.3707 117.774 30.6723C117.774 31.949 118.706 33.0295 120.104 33.0295ZM108.937 23.2317C107.49 23.2317 106.288 22.0282 106.288 20.5795C106.288 19.1307 107.49 17.9272 108.937 17.9272C110.384 17.9272 111.586 19.1307 111.586 20.5795C111.586 22.0282 110.384 23.2317 108.937 23.2317ZM106.73 24.5325H111.145V36.8113H106.73V24.5325ZM98.2592 37.1795C94.4329 37.1795 91.5143 34.233 91.5143 30.6474C91.5143 27.0867 94.4329 24.1402 98.2592 24.1402C102.085 24.1402 105.004 27.0867 105.004 30.6474C105.004 34.233 102.085 37.1795 98.2592 37.1795ZM98.2592 33.0295C99.6574 33.0295 100.589 31.949 100.589 30.6715C100.589 29.3707 99.6574 28.2902 98.2592 28.2902C96.861 28.2902 95.9292 29.3707 95.9292 30.6715C95.9292 31.949 96.861 33.0295 98.2592 33.0295ZM83.1781 42.8272C80.1373 42.8272 77.9295 41.4766 76.8014 39.0696L80.4557 37.1055C80.848 37.9408 81.5837 38.8002 83.1041 38.8002C84.6993 38.8002 85.7533 37.7929 85.8763 36.025C85.2878 36.5411 84.3552 36.9335 82.9578 36.9335C79.548 36.9335 76.8007 34.3062 76.8007 30.6225C76.8007 27.0625 79.72 24.1643 83.5463 24.1643C87.4707 24.1643 90.2912 26.8905 90.2912 30.6474V35.5097C90.2912 39.9298 87.2247 42.8272 83.1781 42.8272ZM83.4724 32.7842C84.7966 32.7842 85.8024 31.875 85.8024 30.5244C85.8024 29.1986 84.7973 28.3143 83.4724 28.3143C82.1723 28.3143 81.1423 29.1986 81.1423 30.5251C81.1423 31.8758 82.1723 32.7842 83.4724 32.7842ZM69.3126 37.1795C65.4863 37.1795 62.5669 34.233 62.5669 30.6474C62.5669 27.0867 65.4863 24.1402 69.3126 24.1402C73.1381 24.1402 76.0574 27.0867 76.0574 30.6474C76.0574 34.233 73.1389 37.1795 69.3126 37.1795ZM69.3126 33.0295C70.7107 33.0295 71.6426 31.949 71.6426 30.6715C71.6426 29.3707 70.7107 28.2902 69.3126 28.2902C67.9144 28.2902 66.9825 29.3707 66.9825 30.6715C66.9825 31.949 67.9144 33.0295 69.3126 33.0295ZM54.528 20.2362V32.6364H61.8373V36.8113H53.9145C51.119 36.8113 49.9909 35.3376 49.9909 33.0046V20.2362H54.528Z" fill="var(--fill-0, #042F0E)"/>
</g>
</g>
</svg>
