<svg preserveAspectRatio="none" width="100%" height="100%" overflow="visible" style="display: block;" viewBox="0 0 46 46" fill="none" xmlns="http://www.w3.org/2000/svg">
<g id="&#230;&#156;&#128;&#229;&#176;&#143;&#232;&#181;&#183;&#232;&#174;&#162;&#233;&#135;&#143; 1" clip-path="url(#clip0_0_112)">
<path id="Vector" d="M45.839 11.6384L23.023 0.276367L0.25298 11.6154H0.22998V34.3394L23.023 45.7014L45.816 34.3394L45.839 11.6384ZM23.023 3.03637L40.158 11.5924L33.626 14.8814L16.422 6.32537L23.023 3.03637ZM13.432 7.93537L30.889 16.3304L23.023 20.1024L5.88798 11.6384L13.432 7.93537ZM3.08198 14.5134H4.00198L3.08198 14.4904V13.0644L21.62 22.2874V42.1594L3.08198 32.9364V14.5134ZM42.987 15.8934V32.9364L24.449 42.1594V22.2874L42.987 13.0644V15.8934Z" fill="var(--fill-0, black)"/>
<path id="Vector_2" d="M37.26 29.9923H29.532L33.396 35.2133L37.26 29.9923ZM35.535 26.3353V29.3713H31.257V26.3353H35.535ZM35.535 23.2303V25.2773H31.257V23.2303H35.535ZM35.535 20.1943V21.7123H31.257V20.1943H35.535Z" fill="var(--fill-0, black)"/>
</g>
<defs>
<clipPath id="clip0_0_112">
<rect width="46" height="46" fill="white"/>
</clipPath>
</defs>
</svg>
