<svg preserveAspectRatio="none" width="100%" height="100%" overflow="visible" style="display: block;" viewBox="0 0 46 46" fill="none" xmlns="http://www.w3.org/2000/svg">
<g id="&#232;&#180;&#168;&#233;&#135;&#143; 1">
<path id="Vector" d="M43.9482 12.8442C43.8987 10.4005 43.6831 7.96275 43.303 5.54716C43.2924 5.43586 43.2582 5.32795 43.2028 5.23028C43.1474 5.13261 43.0718 5.04732 42.981 4.97984C42.8901 4.91235 42.7859 4.86415 42.6751 4.83828C42.5642 4.81242 42.449 4.80946 42.3369 4.8296C40.6501 5.31894 38.9001 5.56681 37.141 5.56556C35.553 5.47277 33.986 5.16313 32.4853 4.64561C30.1356 3.93995 27.88 2.96221 25.7662 1.73304C24.9619 1.28122 24.1954 0.767505 23.474 0.196719C23.3241 0.0698185 23.1327 0 22.9347 0C22.7367 0 22.5453 0.0698185 22.3954 0.196719C21.6746 0.767486 20.9088 1.28121 20.1051 1.73304C17.9932 2.96216 15.7395 3.93992 13.3916 4.64561C11.9473 5.18208 10.4305 5.50754 8.88974 5.61156C7.0795 5.60085 5.28027 5.33439 3.54749 4.8204C3.43539 4.80026 3.32024 4.80322 3.20937 4.82908C3.0985 4.85495 2.99433 4.90315 2.90347 4.97064C2.81262 5.03812 2.73707 5.12341 2.68164 5.22108C2.6262 5.31875 2.59208 5.42666 2.58146 5.53796C2.58146 5.56924 2.16879 8.49652 2.05436 12.835C1.8864 17.7698 2.10778 22.71 2.71652 27.6113C3.26847 30.3413 4.62127 32.8539 6.60878 34.8403C8.59225 37.0579 10.8507 39.0234 13.3316 40.6912C16.269 42.7132 19.3889 44.4672 22.6524 45.9312C22.7573 45.9766 22.8707 46 22.9854 46C23.1 46 23.2134 45.9766 23.3183 45.9312C26.5452 44.4543 29.6329 42.7008 32.5453 40.6912C35.0275 39.0237 37.2873 37.0581 39.2719 34.8403C41.2698 32.7827 42.6222 30.205 43.1679 27.4144C43.8602 22.5892 44.1213 17.714 43.9482 12.8442ZM39.9772 27.0004C39.4999 29.184 38.4059 31.1917 36.8202 32.7943C35.0108 34.8081 32.9521 36.5925 30.692 38.1061C28.2388 39.7917 25.6584 41.2918 22.9732 42.5936C20.258 41.3039 17.6524 39.8032 15.1811 38.1061C12.923 36.5922 10.8662 34.8078 9.05856 32.7943C7.48359 31.2634 6.38926 29.3216 5.90536 27.1991C5.31749 22.4651 5.10489 17.6934 5.26947 12.927C5.31636 11.1883 5.45704 9.68878 5.5377 8.52412C6.64556 8.69913 7.76574 8.78834 8.88786 8.79091C10.5874 8.72591 12.2663 8.40189 13.8643 7.83048L14.3277 7.68697C16.9184 6.90675 19.4055 5.82777 21.737 4.47266C22.1422 4.23715 22.5411 3.99183 22.9338 3.73669C23.3264 3.99183 23.726 4.23715 24.1324 4.47266C26.4653 5.82711 28.9537 6.90546 31.5455 7.68513L31.6787 7.7256C33.4406 8.31869 35.2801 8.66072 37.141 8.74123C38.2268 8.74001 39.3109 8.65883 40.3842 8.49837C40.4837 9.6667 40.6844 11.1791 40.7313 12.9289C40.9032 17.6325 40.6521 22.3419 39.981 27.0023L39.9772 27.0004ZM31.4893 29.6683C32.8666 27.4466 33.5941 24.896 33.592 22.2958C33.592 14.6381 29.6078 10.2665 23.0876 10.2665C16.4754 10.2665 12.5832 14.7117 12.5832 22.2958C12.5832 29.7897 16.7099 34.0712 23.0876 34.0712C25.5416 34.1601 27.9379 33.3277 29.7879 31.7437L32.1533 33.9424C32.4747 34.1368 32.8314 34.2686 33.2037 34.3306C33.9916 34.2441 34.4286 33.9001 34.5168 33.2966C34.4778 32.8621 34.2931 32.4525 33.9916 32.1319L31.4893 29.6683ZM29.2552 27.6058L27.6795 26.0529C27.5287 25.8925 27.3461 25.7639 27.1429 25.675C26.9397 25.5861 26.7202 25.5388 26.4978 25.5359C26.1633 25.5749 25.8519 25.7231 25.6138 25.9567C25.3756 26.1903 25.2245 26.4957 25.1847 26.8238C25.0959 27.2556 25.3148 27.6438 25.8413 27.9885L27.8127 29.7989C27.1939 30.394 26.4502 30.8494 25.6334 31.1335C24.8167 31.4176 23.9466 31.5235 23.0838 31.4438C18.355 31.2727 15.5263 28.4245 15.5263 22.2976C15.5263 16.375 18.355 13.1147 23.0838 12.8553C27.7245 13.1147 30.6414 16.3088 30.6414 22.2976C30.5734 24.1441 30.1006 25.9546 29.2552 27.6058Z" fill="var(--fill-0, black)"/>
</g>
</svg>
