<svg preserveAspectRatio="none" width="100%" height="100%" overflow="visible" style="display: block;" viewBox="0 0 46 46" fill="none" xmlns="http://www.w3.org/2000/svg">
<g id="&#229;&#191;&#171;&#233;&#128;&#159;&#229;&#183;&#165;&#228;&#189;&#156;&#230;&#181;&#129;_o 1">
<path id="Vector" d="M2.26471 15.5889L4.54118 16.8667C3.78235 18.9111 3.52941 20.9556 3.52941 23C3.52941 25.0444 3.78235 27.0889 4.54118 29.1333L2.26471 30.4111C1.50588 28.1111 1 25.5556 1 23C1 20.4444 1.50588 17.8889 2.26471 15.5889ZM6.05882 8.94444C9.34706 5.11111 13.6471 2.3 18.7059 1.27778V3.83333C14.6588 4.85556 10.8647 7.15555 8.08235 10.2222L6.05882 8.94444ZM42.7353 30.4111L40.4588 29.1333C40.9647 27.3444 41.4706 25.0444 41.4706 23C41.4706 20.9556 41.2176 18.9111 40.4588 16.8667L42.7353 15.5889C43.4941 17.8889 44 20.4444 44 23C44 25.5556 43.4941 28.1111 42.7353 30.4111ZM38.9412 37.0556C35.6529 40.8889 31.3529 43.7 26.2941 44.7222V42.1667C30.3412 41.4 34.1353 39.1 36.9176 35.7778L38.9412 37.0556ZM6.05882 37.0556L8.08235 35.7778C10.8647 38.8444 14.4059 41.1444 18.7059 42.1667V44.7222C13.6471 43.7 9.09412 40.8889 6.05882 37.0556ZM38.9412 8.94444L36.9176 10.2222C34.1353 7.15555 30.5941 4.85556 26.2941 3.83333V1.27778C31.3529 2.3 35.9059 5.11111 38.9412 8.94444ZM22.5 5.11111C20.9824 5.11111 19.9706 4.08889 19.9706 2.55556C19.9706 1.02222 20.9824 0 22.5 0C24.0176 0 25.0294 1.02222 25.0294 2.55556C25.0294 4.08889 24.0176 5.11111 22.5 5.11111ZM22.5 46C20.9824 46 19.9706 44.9778 19.9706 43.4444C19.9706 41.9111 20.9824 40.8889 22.5 40.8889C24.0176 40.8889 25.0294 41.9111 25.0294 43.4444C25.0294 44.9778 24.0176 46 22.5 46ZM4.79412 35.7778C3.27647 35.7778 2.26471 34.7556 2.26471 33.2222C2.26471 31.6889 3.27647 30.6667 4.79412 30.6667C6.31176 30.6667 7.32353 31.6889 7.32353 33.2222C7.32353 34.7556 6.31176 35.7778 4.79412 35.7778ZM40.2059 35.7778C38.6882 35.7778 37.6765 34.7556 37.6765 33.2222C37.6765 31.6889 38.6882 30.6667 40.2059 30.6667C41.7235 30.6667 42.7353 31.6889 42.7353 33.2222C42.7353 34.7556 41.7235 35.7778 40.2059 35.7778ZM4.79412 15.3333C3.27647 15.3333 2.26471 14.3111 2.26471 12.7778C2.26471 11.2444 3.27647 10.2222 4.79412 10.2222C6.31176 10.2222 7.32353 11.2444 7.32353 12.7778C7.32353 14.3111 6.31176 15.3333 4.79412 15.3333ZM40.2059 15.3333C38.6882 15.3333 37.6765 14.3111 37.6765 12.7778C37.6765 11.2444 38.6882 10.2222 40.2059 10.2222C41.7235 10.2222 42.7353 11.2444 42.7353 12.7778C42.7353 14.3111 41.7235 15.3333 40.2059 15.3333ZM24.7765 18.9111H35.9059L22.2471 32.7111V26.5778H11.1176L24.7765 12.7778V18.9111ZM22.2471 21.4667V18.9111L17.1882 24.0222H24.7765V26.5778L29.8353 21.4667H22.2471Z" fill="var(--fill-0, black)"/>
</g>
</svg>
