<svg width="49" height="49" viewBox="0 0 49 49" fill="none" xmlns="http://www.w3.org/2000/svg">
<g id="&#229;&#174;&#137;&#229;&#133;&#168; (1) 1">
<path id="Vector" d="M41.5155 7.66592C34.3554 6.85589 28.9684 4.91886 25.5047 1.90689L24.5937 1.11523L23.6106 1.81655C18.1823 5.69214 12.8137 7.65673 7.65649 7.65673H6.12524V29.0942C6.12524 35.6664 11.9195 41.6275 23.8403 47.3192L24.4666 47.6178L25.1051 47.3437C36.8972 42.2783 42.8752 36.1395 42.8752 29.0942V7.82058L41.5155 7.66592ZM39.8127 29.0942C39.8127 34.6833 34.6739 39.7824 24.5324 44.2536C14.3496 39.2878 9.18774 34.1887 9.18774 29.0942V10.6702C14.1965 10.3456 19.3124 8.43614 24.4283 4.97858C28.1002 7.7777 33.2651 9.6443 39.8127 10.5401V29.0942Z" fill="#333333"/>
<path id="Vector_2" d="M17.2158 22.4271C17.0826 22.2763 16.921 22.1533 16.7402 22.0651C16.5595 21.9768 16.3631 21.925 16.1623 21.9127C15.9616 21.9003 15.7603 21.9276 15.5701 21.993C15.3799 22.0584 15.2044 22.1606 15.0537 22.2938C14.903 22.4271 14.78 22.5887 14.6917 22.7694C14.6034 22.9502 14.5516 23.1465 14.5393 23.3473C14.5269 23.5481 14.5542 23.7493 14.6196 23.9395C14.685 24.1298 14.7872 24.3052 14.9205 24.456L20.7484 31.0511C21.3517 31.7325 22.1924 32.0831 23.0407 32.0831C23.4956 32.0827 23.9447 31.9816 24.3559 31.787C24.767 31.5924 25.13 31.3092 25.4187 30.9576L34.8742 19.3431C35.1306 19.0282 35.2515 18.6243 35.2101 18.2202C35.1688 17.8162 34.9686 17.4451 34.6537 17.1886C34.3387 16.9322 33.9348 16.8113 33.5308 16.8527C33.1267 16.894 32.7557 17.0942 32.4992 17.4091L23.0437 29.0221L17.2158 22.4271Z" fill="#333333"/>
</g>
</svg>
