<svg width="49" height="49" viewBox="0 0 49 49" fill="none" xmlns="http://www.w3.org/2000/svg">
<g id="&#229;&#190;&#189;&#231;&#171;&#160;1 1">
<path id="Vector" d="M45.5308 41.1189L40.7641 32.851C41.5551 32.5278 42.1742 31.9706 42.5869 31.2621V31.2346C43.0477 30.478 43.2128 29.5219 42.9927 28.5864L42.3393 25.6356L42.3117 25.5943L44.2927 23.462L44.4028 23.3657C45.0562 22.6504 45.3795 21.7355 45.3795 20.8276C45.3795 19.9609 45.0562 19.0323 44.4028 18.3307L42.3186 16.0953L42.9996 13.1238C43.2197 12.1746 43.0546 11.2253 42.5938 10.4618C42.1604 9.66395 41.4244 9.03801 40.4752 8.74912L37.5725 7.85493L36.6508 4.95224C36.3688 4.03053 35.7566 3.26703 34.9794 2.81993C34.1952 2.37284 33.2391 2.20776 32.3174 2.41411L29.3597 3.08131L29.3322 3.09507L27.1792 1.12097L27.0829 1.01091C26.3814 0.357465 25.4803 0.0341797 24.5723 0.0341797C23.6644 0.0341797 22.7633 0.357465 22.048 1.01091L19.8881 3.04692L19.8056 3.08819L16.8204 2.40723C15.8849 2.20776 14.9494 2.36596 14.1584 2.81306C13.3949 3.26015 12.7759 4.02365 12.4732 4.94536L11.579 7.82053L11.5653 7.84805L8.64882 8.74224C7.74087 9.02425 6.97737 9.65019 6.55779 10.455C6.08318 11.2116 5.93185 12.1677 6.12445 13.1169L6.82604 16.0953L4.84506 18.2276L4.73501 18.3376C4.0678 19.0323 3.74452 19.9403 3.74452 20.8345C3.74452 21.7424 4.07468 22.6573 4.73501 23.3726H4.74877L6.75726 25.5462L6.82604 25.6012L6.14508 28.5177L6.11757 28.5864C5.92497 29.5219 6.0763 30.4711 6.55091 31.2346C6.95673 31.9706 7.58267 32.5278 8.36681 32.851L3.59319 41.1189C3.29742 41.6623 3.46938 42.3708 4.02653 42.6665C4.19162 42.8041 4.40485 42.8316 4.59744 42.8316L11.0907 42.7766L14.2685 48.41C14.5711 48.9672 15.2727 49.1597 15.8161 48.8571C16.0362 48.7333 16.1807 48.5888 16.277 48.3825L21.1882 39.8808L22.0411 40.6787C22.7633 41.3321 23.6575 41.6554 24.5517 41.6554C25.4459 41.6554 26.3745 41.3321 27.0761 40.6787L27.9359 39.8808L32.8402 48.3825C32.9502 48.5888 33.1016 48.7333 33.301 48.8571C33.8719 49.1597 34.5529 48.9672 34.8487 48.41L38.0402 42.7766L44.5197 42.8316C44.7398 42.8316 44.9255 42.8041 45.1044 42.6665C45.6546 42.3708 45.8472 41.6623 45.5308 41.1189ZM15.2658 45.5486L12.7415 41.0432C12.5351 40.6924 12.1706 40.4723 11.7372 40.4723L6.57842 40.5274L10.6023 33.5458L11.5653 33.8415L12.4732 36.758C12.769 37.6797 13.3949 38.4019 14.1584 38.8903C14.9426 39.3236 15.8849 39.4887 16.8204 39.2686L19.2072 38.7252L15.2658 45.5486ZM28.5412 36.4072C27.9703 36.5723 27.4337 36.8887 27.0142 37.3083L26.8904 37.4252L24.5586 39.5781L22.1167 37.3014H22.1305C21.649 36.8336 21.0506 36.5104 20.4247 36.3453C19.7987 36.1664 19.1384 36.1664 18.4505 36.2834L15.2177 37.0606L14.241 33.8828C14.0484 33.2087 13.6907 32.6378 13.2367 32.177C12.769 31.7299 12.1912 31.3997 11.5309 31.1727L8.38744 30.196L9.10967 26.9287C9.261 26.3028 9.24724 25.615 9.08216 24.9959L9.02026 24.8033C8.84142 24.2324 8.52501 23.7234 8.11918 23.2626L8.00225 23.1594L5.87682 20.8207L5.89058 20.7932L8.11918 18.427C8.56628 17.918 8.89644 17.3471 9.07528 16.6937V16.6799C9.24036 16.054 9.25412 15.3937 9.1028 14.7196L8.38056 11.4867L11.524 10.5306C12.1843 10.3036 12.7621 9.95972 13.2298 9.51262C13.6838 9.06553 14.0415 8.48086 14.2341 7.82053L14.2478 7.74487L15.2108 4.62895L18.4437 5.3787C19.1315 5.53003 19.7918 5.53003 20.4178 5.35119C21.03 5.18611 21.6421 4.85594 22.1236 4.39509L22.2405 4.27816L24.5448 2.15273H24.5861L27.0004 4.40197C27.475 4.88346 28.0803 5.19986 28.7063 5.35807C29.3322 5.5369 29.9925 5.5369 30.6666 5.38558L30.7285 5.35807L33.9063 4.64271L34.8762 7.81366L34.9037 7.82741H34.8762C35.2958 9.14807 36.2863 10.1179 37.5863 10.5375L40.7435 11.4936L40.0144 14.7265C39.8768 15.4005 39.8768 16.0746 40.0419 16.7006C40.2069 17.3265 40.5371 17.8974 41.0117 18.4064L43.261 20.8345L43.2334 20.8964L41.0117 23.2763C40.5302 23.7991 40.2069 24.37 40.0419 24.9959L40.0006 25.1128C39.8837 25.725 39.8837 26.3441 40.0144 26.97L40.0281 27.0319L40.7435 30.2029L37.5863 31.1796C36.9122 31.4066 36.3413 31.7299 35.8942 32.1838C35.4333 32.6516 35.0825 33.2156 34.8762 33.8897V33.9516L33.9063 37.0675L30.6528 36.2903C29.9925 36.1733 29.3391 36.1733 28.7063 36.3522L28.5412 36.4072ZM37.3868 40.4654C36.9535 40.4654 36.582 40.6856 36.3826 41.0364L33.8444 45.5417L29.9306 38.7321L32.2418 39.2617L32.2968 39.2755C33.191 39.4956 34.0783 39.3443 34.8212 38.9591L34.9862 38.8903C35.7153 38.4569 36.3138 37.7485 36.6164 36.8818L36.6577 36.758L37.5656 33.8622V33.8415L38.5424 33.5458L42.5456 40.5205L37.3868 40.4654ZM31.6433 27.933C33.473 26.1308 34.601 23.6134 34.601 20.8345C34.601 18.0762 33.473 15.5656 31.6433 13.7772C29.8343 11.9407 27.3237 10.8195 24.5586 10.8195C21.8141 10.8195 19.2897 11.9476 17.4669 13.7772C15.6442 15.5725 14.523 18.0831 14.523 20.8345C14.523 23.579 15.6235 26.0483 17.405 27.8711L17.4738 27.9399C19.2897 29.7695 21.8141 30.8838 24.5586 30.8838C27.3237 30.8838 29.8412 29.7695 31.6433 27.933ZM30.0407 26.3234C28.6306 27.7335 26.6978 28.5933 24.5586 28.5933C22.44 28.5933 20.4866 27.7404 19.0834 26.3234L19.0283 26.2684C17.687 24.8859 16.8135 22.9668 16.8135 20.8345C16.8135 18.7159 17.7077 16.7762 19.0834 15.3799C20.4797 13.9698 22.44 13.1238 24.5586 13.1238C26.7046 13.1238 28.6306 13.963 30.0407 15.3799C31.4232 16.7762 32.2968 18.7159 32.2968 20.8345C32.2968 22.9943 31.4439 24.9202 30.0407 26.3234Z" fill="#333333"/>
</g>
</svg>
