<svg width="50" height="50" viewBox="0 0 50 50" fill="none" xmlns="http://www.w3.org/2000/svg">
<g id="&#232;&#182;&#179;&#232;&#191;&#185;&#232;&#174;&#176;&#229;&#189;&#149; 1">
<path id="Vector" d="M13.11 19.9699C13.71 20.0099 15.175 21.7499 15.295 23.3599L15.3 23.4499L15.315 23.5399C15.49 24.5749 14.84 25.5699 13.85 25.8499C12.82 25.7399 12.01 24.8599 12.02 23.7999V23.7099L12.015 23.6199C11.865 21.8149 12.715 20.1299 13.11 19.9699ZM13.105 17.9699C13.055 17.9699 13.005 17.9699 12.955 17.9749C10.965 18.1299 9.82504 21.3749 10.025 23.7899C10.0197 24.8598 10.4379 25.8883 11.1882 26.6508C11.9386 27.4134 12.9603 27.8481 14.03 27.8599C16.205 27.4649 17.66 25.3899 17.295 23.2099C17.115 20.8799 15.05 17.9699 13.105 17.9699ZM19.455 13.3899C20.03 13.4449 21.45 15.1999 21.585 16.7999L21.59 16.8799L21.605 16.9599C21.78 17.9999 21.125 18.9949 20.13 19.2699C19.6286 19.2119 19.1659 18.9714 18.8303 18.5943C18.4947 18.2172 18.3095 17.7298 18.31 17.2249V17.1149L18.3 17.0049C18.11 15.1749 19.07 13.4749 19.455 13.3899ZM19.45 11.3899C19.38 11.3899 19.31 11.3949 19.24 11.3999C17.225 11.6249 16.065 14.8199 16.31 17.2149C16.295 19.4349 18.075 21.2499 20.29 21.2849C21.3405 21.0998 22.2754 20.5074 22.8915 19.6367C23.5076 18.7659 23.755 17.6872 23.58 16.6349C23.38 14.3249 21.395 11.3899 19.45 11.3899ZM29.31 13.3149C29.87 13.5399 30.76 15.6649 30.425 17.2799L30.41 17.3549L30.4 17.4349C30.27 18.4549 29.4 19.2249 28.375 19.2249H28.325C27.8807 19.0397 27.5148 18.7056 27.29 18.2799C27.04 17.7999 26.99 17.2249 27.155 16.7099L27.185 16.6099L27.205 16.5099C27.58 14.7399 28.86 13.3699 29.31 13.3149ZM29.325 11.3149C27.49 11.3149 25.715 13.9099 25.255 16.0999C25.0928 16.6095 25.0327 17.146 25.0782 17.6788C25.1237 18.2117 25.2738 18.7303 25.52 19.2049C26.02 20.1649 26.88 20.8799 27.915 21.1999C28.07 21.2199 28.225 21.2249 28.375 21.2249C30.385 21.2249 32.125 19.7299 32.385 17.6849C32.875 15.3149 31.69 11.7799 29.725 11.3549C29.5932 11.3293 29.4593 11.3159 29.325 11.3149ZM36.83 20.0249C37.33 20.1849 38.295 22.1599 37.925 23.8599L37.905 23.9449L37.895 24.0299C37.765 25.0499 36.895 25.8199 35.87 25.8199H35.835C35.3772 25.6227 35.0078 25.2643 34.7967 24.8126C34.5856 24.361 34.5477 23.8477 34.69 23.3699L34.71 23.3049L34.725 23.2399C35.11 21.4549 36.395 20.0749 36.83 20.0249ZM36.84 18.0249C35.01 18.0249 33.245 20.6199 32.765 22.8099C32.4691 23.8217 32.5794 24.9089 33.0724 25.8407C33.5653 26.7725 34.4021 27.4753 35.405 27.7999C35.56 27.8199 35.715 27.8249 35.865 27.8249C37.875 27.8249 39.615 26.3299 39.875 24.2849C40.39 21.9149 39.205 18.4899 37.235 18.0699C37.11 18.0399 36.975 18.0249 36.84 18.0249ZM24.915 24.2499H24.93C25.385 24.2899 25.83 24.3999 26.245 24.5899L26.26 24.5999L26.275 24.6049C26.375 24.6499 26.475 24.6999 26.55 24.7549C26.605 24.7949 26.66 24.8299 26.72 24.8649L26.735 24.8749L26.75 24.8849C26.885 24.9599 27.02 25.0399 27.085 25.0899C27.35 25.3499 27.585 25.6399 27.79 25.9399C27.885 26.0849 27.99 26.2399 28.1 26.3949C28.255 26.6199 28.445 26.8999 28.525 27.0349C28.675 27.2999 28.835 27.5299 28.98 27.7349C29.05 27.8349 29.12 27.9349 29.19 28.0449C29.72 28.8595 30.3351 29.6155 31.025 30.2999L31.045 30.3199L31.065 30.3349L31.85 31.0749L31.87 31.0949L31.89 31.1149C32.16 31.3549 32.405 31.6199 32.63 31.9049L32.65 31.9299L32.67 31.9549L32.875 32.2049C32.93 32.2749 32.99 32.3349 33.04 32.3849C33.3334 32.6731 33.5615 33.0208 33.709 33.4046C33.8565 33.7885 33.92 34.1995 33.895 34.6099C33.7915 35.2188 33.4632 35.7666 32.975 36.1449L32.95 36.1649L32.925 36.1849C32.56 36.4899 32.1 36.6749 31.62 36.7049H31.255C30.41 36.6199 29.57 36.4449 28.765 36.1799L28.745 36.1749L28.725 36.1699C27.545 35.8149 26.325 35.6099 25.11 35.5699H24.935L23.195 35.6149C23.025 35.6199 22.855 35.6399 22.69 35.6799L22 35.8249L21.965 35.8349L21.935 35.8449L21.885 35.8599L21.85 35.8699C20.855 36.1799 19.83 36.4049 18.805 36.5349H17.88C17.835 36.5199 17.795 36.5049 17.76 36.4849L17.37 36.2349C17.315 36.1949 17.265 36.1499 17.215 36.0999L17.18 36.0599L17.145 36.0199C17.04 35.9149 16.945 35.7999 16.855 35.6799C16.7843 35.5744 16.724 35.4622 16.675 35.3449L16.67 35.3299L16.665 35.3149C16.5 34.9399 16.415 34.5299 16.43 34.1049C16.485 33.8049 16.59 33.5199 16.73 33.2749C16.765 33.2149 16.8 33.1499 16.835 33.0749C17.075 32.5599 17.38 32.0849 17.755 31.6349L18.18 31.1949L18.87 30.5699L18.88 30.5599L18.89 30.5499C19.225 30.2349 19.545 29.8999 19.84 29.5449L19.85 29.5349L19.86 29.5249L20.345 28.9299C20.69 28.5099 20.78 28.3899 21.335 27.6299C21.52 27.3749 21.7 27.1149 21.88 26.8499C22.205 26.3749 22.51 25.9299 22.835 25.5549L23.365 24.9849L23.65 24.7199C23.995 24.4149 24.445 24.2499 24.915 24.2499ZM24.915 22.2499C23.955 22.2499 23.025 22.5999 22.3 23.2349L21.95 23.5599L21.93 23.5799L21.335 24.2199C20.73 24.9149 20.24 25.7199 19.7 26.4549C19.165 27.1949 19.095 27.2799 18.785 27.6649L18.295 28.2699C18.05 28.5599 17.79 28.8399 17.51 29.0949L16.78 29.7549C16.775 29.7599 16.765 29.7649 16.76 29.7749L16.265 30.2949C16.26 30.2999 16.255 30.3049 16.25 30.3149C15.75 30.8949 15.335 31.5449 15.01 32.2399C15.005 32.2499 15 32.2549 14.995 32.2649C14.705 32.7649 14.51 33.3149 14.425 33.8899C14.425 33.9049 14.42 33.9149 14.42 33.9299C14.375 34.6899 14.51 35.4499 14.825 36.1449C14.93 36.3899 15.055 36.6199 15.205 36.8399C15.355 37.0449 15.52 37.2399 15.695 37.4199C15.86 37.6099 16.045 37.7749 16.255 37.9099L16.735 38.2149L16.765 38.2299C17.03 38.3699 17.315 38.4699 17.61 38.5299C17.635 38.5349 17.66 38.5349 17.68 38.5349H18.895C18.91 38.5349 18.925 38.5349 18.94 38.5299C20.125 38.3849 21.3 38.1349 22.44 37.7749C22.445 37.7749 22.455 37.7699 22.46 37.7699L23.145 37.6049C23.17 37.5999 23.2 37.5949 23.225 37.5949L24.985 37.5499H25.005C26.065 37.5849 27.11 37.7599 28.125 38.0649C29.1 38.3849 30.105 38.5949 31.125 38.6899H31.655C32.58 38.6449 33.47 38.2999 34.18 37.7049C35.0855 36.9982 35.6851 35.9709 35.855 34.8349C35.855 34.8249 35.86 34.8149 35.86 34.8049C35.975 33.3649 35.445 31.9549 34.415 30.9399L34.39 30.9149L34.175 30.6599C33.88 30.2799 33.55 29.9299 33.19 29.6099L32.405 28.8699C31.8158 28.2863 31.2911 27.6409 30.84 26.9449C30.64 26.6299 30.415 26.3399 30.235 26.0299C30.055 25.7149 29.7 25.2249 29.43 24.8199C29.13 24.3749 28.785 23.9599 28.4 23.5899C28.23 23.4249 27.785 23.1749 27.7 23.1299C27.69 23.1249 27.68 23.1199 27.675 23.1149C27.475 22.9799 27.265 22.8599 27.04 22.7649C26.39 22.4749 25.695 22.2999 24.985 22.2499H24.915Z" fill="#73624A"/>
</g>
</svg>
