<svg width="38" height="38" viewBox="0 0 38 38" fill="none" xmlns="http://www.w3.org/2000/svg">
<g id="&#230;&#150;&#135;&#229;&#133;&#183; 1">
<path id="Vector" d="M29.6875 35.625C30.3406 35.625 30.875 35.0906 30.875 34.4375V4.75C30.875 4.09687 30.3406 3.5625 29.6875 3.5625H22.5625C21.3973 3.5625 20.9668 3.5625 20.1912 4.75L14.1758 13.3408L7.125 2.375V35.625M27.3125 4.75V33.7695L26.125 31.9215V4.75H27.3125ZM24.9375 4.75V30.0771L23.75 28.2291V4.75H24.9375ZM21.1635 5.43281C21.1709 5.42168 21.1783 5.41055 21.1857 5.40313C21.4863 4.94668 21.6348 4.83535 21.6941 4.80566C21.824 4.75 22.1654 4.75 22.5625 4.75V26.3848L14.8697 14.4207L21.1635 5.43281ZM21.965 34.4375V33.25H20.7775V34.4375H19.59V33.25H18.4025V34.4375H17.215V33.25H16.0275V34.4375H14.84V33.25H13.6525V34.4375H12.465V33.25H11.2775V34.4375H8.30879V31.4688H9.49629V30.2812H8.30879V29.0938H9.49629V27.9062H8.30879V26.7188H9.49629V25.5312H8.30879V24.3438H9.49629V23.1562H8.30879V21.9688H9.49629V20.7812H8.30879V19.5938H9.49629V18.4062H8.30879V17.2188H9.49629V16.0312H8.30879V14.8438H9.49629V13.6562H8.30879V12.4688H9.49629V11.2812H8.30879V6.41621L26.3291 34.4375H21.965ZM29.6875 34.4338C29.6875 34.4375 29.6875 34.4375 29.6875 34.4338L28.5 34.4375V4.75H29.6838L29.6875 4.75371V34.4338ZM21.4307 30.875L11.875 16.0201V30.875H21.4307ZM13.0625 29.6875V20.0613L19.2561 29.6875H13.0625ZM20.7812 16.625H19.5938V11.875H20.7812V16.625ZM20.7812 19.0186H19.5938V17.8311H20.7812V19.0186Z" fill="#73624A"/>
</g>
</svg>
