<svg width="35" height="32" viewBox="0 0 35 32" fill="none" xmlns="http://www.w3.org/2000/svg">
<g id="&#230;&#156;&#141;&#232;&#163;&#133; 1">
<path id="Vector" d="M0 32.0002V30.1179L17.0037 16.9414L34.0074 30.1179V32.0002H0ZM17.0037 19.7649L2.83395 30.1179H31.1734L17.0037 19.7649Z" fill="#73624A"/>
<path id="Vector_2" d="M16.0591 13.1768H17.9484V19.765H16.0591V13.1768Z" fill="#73624A"/>
<path id="Vector_3" d="M17.9484 14.8122V12.8311C20.1448 12.0527 21.727 9.98494 21.727 7.52941C21.727 6.03172 21.1299 4.59537 20.067 3.53634C19.004 2.47731 17.5624 1.88235 16.0591 1.88235C14.5559 1.88235 13.1143 2.47731 12.0513 3.53634C10.9884 4.59537 10.3913 6.03172 10.3913 7.52941C10.3913 7.85224 10.4347 8.16282 10.4867 8.47059H8.56713C8.5258 8.15852 8.50403 7.84418 8.50195 7.52941C8.50195 5.53249 9.29816 3.61735 10.7154 2.20531C12.1327 0.793275 14.0549 0 16.0591 0C18.0634 0 19.9856 0.793275 21.4029 2.20531C22.8201 3.61735 23.6163 5.53249 23.6163 7.52941C23.6163 11.0362 21.2065 13.9746 17.9484 14.8122Z" fill="#73624A"/>
</g>
</svg>
