<svg width="38" height="38" viewBox="0 0 38 38" fill="none" xmlns="http://www.w3.org/2000/svg">
<g id="&#230;&#169;&#132;&#230;&#166;&#132;&#230;&#178;&#185;&#233;&#187;&#132;&#233;&#135;&#145;&#228;&#186;&#167;&#229;&#140;&#186; 1">
<path id="Vector" d="M23.3931 15.2586C22.9743 14.6536 19.4141 8.92172 25.4408 2.73997C25.4718 2.73997 24.6341 11.1633 32.8868 13.3893C33.9106 8.62698 31.1959 3.91892 26.674 2.38318C28.4502 1.90229 30.3505 1.63082 32.4059 1.50672C32.8247 1.47569 33.1582 1.14217 33.1272 0.723336C33.0962 0.304497 32.7627 -0.0290227 32.3438 0.00200239C29.505 0.149372 19.003 0.769872 13.7365 9.71286C10.9598 13.8159 10.2385 17.7949 10.1144 18.5473C7.16697 19.1522 4.87112 23.2476 4.87112 28.2271C4.84009 33.6254 7.52376 38 10.8434 38C14.1631 38 16.8158 33.6254 16.8158 28.2271C16.8158 23.2786 14.5509 19.1755 11.6268 18.5473C11.8052 17.5234 12.5886 14.0564 15.0008 10.5273C16.9631 7.63418 19.4607 5.43139 22.5089 3.91892C18.7393 9.55773 21.2756 14.6226 21.997 15.8636C19.6158 17.6165 19.0729 22.1694 20.9111 26.7224C22.9355 31.7252 27.0618 34.7734 30.11 33.5401C33.1582 32.3069 34.0269 27.2343 32.0103 22.2625C30.1178 17.5467 26.3793 14.5916 23.3931 15.2586ZM9.57917 25.1789L9.12931 27.7462C9.06726 28.1107 8.73374 28.3822 8.37695 28.3822H8.25285C7.83401 28.3202 7.56254 27.9323 7.64786 27.5057L8.09773 24.9384C8.15978 24.5196 8.54759 24.2481 8.97418 24.3334C9.39302 24.3645 9.66449 24.76 9.57917 25.1789ZM24.2928 25.4814C24.1998 25.5124 24.1144 25.5434 24.0214 25.5434C23.7189 25.5434 23.4164 25.365 23.331 25.0625L22.3925 22.6193C22.2452 22.2237 22.4236 21.8049 22.8114 21.6575C23.2069 21.5101 23.6258 21.6885 23.7732 22.0764L24.7117 24.5196C24.8978 24.9074 24.6884 25.334 24.2928 25.4814Z" fill="#73624A"/>
</g>
</svg>
