<svg width="38" height="38" viewBox="0 0 38 38" fill="none" xmlns="http://www.w3.org/2000/svg">
<g id="&#231;&#190;&#142;&#228;&#189;&#147;&#231;&#190;&#142;&#229;&#174;&#185; 1">
<path id="Vector" d="M19.6697 25.1992H18.103C17.5821 25.1992 17.1599 25.6215 17.1599 26.1423C17.1599 26.6631 17.5822 27.0851 18.103 27.0851H19.6697C20.1906 27.0851 20.6128 26.6631 20.6128 26.1423C20.6128 25.6215 20.1906 25.1992 19.6697 25.1992Z" fill="#73624A"/>
<path id="Vector_2" d="M27.201 3.96629C26.6107 3.71764 19.0282 0.64252 12.3249 3.84428C8.32124 5.75666 5.52196 9.46633 4.00444 14.8701C1.90465 22.3474 1.81207 27.0895 3.70444 30.2447C5.67253 33.5261 9.48788 34.5977 13.9037 35.5693C14.0059 35.5919 14.1081 35.6029 14.209 35.6029C14.3414 35.6029 14.4697 35.5798 14.5937 35.5444C14.6814 35.5713 14.7726 35.59 14.8691 35.59C15.3899 35.59 15.8122 35.1678 15.8122 34.647V33.4934C16.8016 33.8712 17.8318 34.0824 18.8866 34.0824C20.4275 34.0824 21.9176 33.6342 23.3033 32.8623V34.647C23.3033 35.1678 23.7256 35.59 24.2464 35.59C24.3875 35.59 24.5202 35.5569 24.6404 35.5013C24.8424 35.5421 25.0551 35.5439 25.2684 35.4892C29.1554 34.4973 32.1683 31.7667 33.9821 27.5924C35.3104 24.5352 35.5289 21.7737 35.5363 21.6749C36.7245 8.00451 27.9226 4.24996 27.201 3.96629ZM6.13096 28.7896C4.9934 26.893 4.87807 23.8776 5.78999 19.4517C5.83191 19.4574 5.87406 19.4625 5.91705 19.4625C5.98772 19.4625 6.05957 19.4544 6.13141 19.4376C6.14854 19.4336 6.1905 19.4237 6.24811 19.4095C6.24883 19.4235 6.24655 19.4369 6.24792 19.451C6.24822 19.4541 6.24871 19.4572 6.24902 19.4603C6.22494 19.6789 6.25263 19.8907 6.3225 20.0865C6.99001 24.9365 9.97832 30.0544 13.926 32.5422V32.6746C9.73171 31.721 7.34378 30.8125 6.13096 28.7896ZM8.43079 21.1189C8.78213 21.1432 9.21545 21.1619 9.71903 21.1619C13.0648 21.1619 19.5009 20.3363 25.4461 14.8843C26.1091 16.544 27.3543 18.5731 29.6222 19.4973C28.9578 25.4284 24.1952 32.1962 18.8865 32.1962C14.0695 32.1962 9.68846 26.5914 8.43079 21.1189ZM32.7163 21.4472C32.7096 21.5384 31.9733 30.3367 25.1894 32.5649V31.5619C28.8511 28.5316 31.4214 23.268 31.5789 18.576C31.7614 17.8903 31.4108 17.1623 30.7341 16.8976C28.1418 15.883 27.5542 12.0368 27.5459 11.9808C27.5428 11.9583 27.5342 11.9382 27.5301 11.9161C27.5207 11.8663 27.5087 11.8177 27.4941 11.769C27.4813 11.7269 27.4673 11.686 27.451 11.6459C27.4332 11.602 27.4128 11.5598 27.3905 11.5177C27.3688 11.4767 27.3459 11.4373 27.3206 11.399C27.2961 11.3621 27.2696 11.3268 27.2414 11.2919C27.2095 11.2525 27.1761 11.2154 27.1404 11.1798C27.1245 11.1639 27.1126 11.1456 27.0958 11.1303C27.0807 11.1166 27.0633 11.1077 27.0478 11.0948C27.0079 11.0616 26.9665 11.0315 26.9233 11.0027C26.8885 10.9797 26.8538 10.9574 26.8177 10.9377C26.773 10.9134 26.727 10.8929 26.6798 10.8735C26.6426 10.8582 26.6058 10.8433 26.5677 10.8314C26.5185 10.8158 26.4684 10.8047 26.4174 10.7947C26.378 10.787 26.3391 10.7797 26.2995 10.7754C26.2512 10.7701 26.2028 10.7687 26.1535 10.7685C26.1064 10.7683 26.0598 10.7698 26.0128 10.7742C25.9924 10.7762 25.9725 10.7737 25.952 10.7766C25.9291 10.7798 25.9085 10.7884 25.886 10.7926C25.8361 10.8019 25.7872 10.8136 25.7384 10.8283C25.6959 10.8411 25.6547 10.8553 25.6142 10.8718C25.571 10.8893 25.5291 10.9092 25.4874 10.9311C25.4458 10.9531 25.4059 10.9764 25.367 11.0022C25.3304 11.0264 25.2953 11.0525 25.2606 11.0804C25.2213 11.1121 25.1844 11.1455 25.1489 11.1811C25.1324 11.1975 25.1134 11.2098 25.0976 11.2272C19.3966 17.5086 12.8376 18.3429 9.7106 18.3362C12.3331 17.3804 15.8663 15.7677 18.4491 13.3558C18.8297 13.0003 18.8502 12.4035 18.4947 12.0227C18.139 11.6424 17.5424 11.6212 17.1616 11.9771C13.6656 15.242 8.00837 16.978 6.24617 17.4597C6.39317 16.871 6.55061 16.2674 6.72825 15.6349C8.01345 11.0582 10.3016 7.95272 13.5287 6.40454C19.1894 3.68931 26.0439 6.54843 26.1105 6.57676C26.1302 6.58526 26.1503 6.59335 26.1705 6.60095C26.2463 6.6295 33.7466 9.59408 32.7163 21.4472Z" fill="#73624A"/>
</g>
</svg>
