<svg preserveAspectRatio="none" width="100%" height="100%" overflow="visible" style="display: block;" viewBox="0 0 74 74" fill="none" xmlns="http://www.w3.org/2000/svg">
<g id="&#230;&#143;&#144;&#231;&#164;&#186; 1" clip-path="url(#clip0_0_23)">
<path id="Vector" d="M46.4062 64.6673V65.4757C46.4062 65.7206 46.4184 65.9901 46.4429 66.284C46.4674 66.578 46.4796 66.8719 46.4796 67.1658C46.4306 68.0967 46.1735 69.1132 45.708 70.2155C45.2426 71.3178 44.3486 72.1139 43.0258 72.6038C42.4869 72.7997 41.7888 73.0814 40.9315 73.4489C40.0741 73.8163 38.7882 74 37.0735 74C35.6038 74 34.3913 73.8285 33.4359 73.4856C32.4806 73.1427 31.7335 72.9222 31.1946 72.8242C30.5088 72.6773 29.9576 72.3711 29.5412 71.9057C29.1248 71.4403 28.8064 70.9136 28.5859 70.3257C28.3654 69.7378 28.2307 69.1377 28.1817 68.5253C28.1327 67.9129 28.1082 67.3618 28.1082 66.8719V64.5938L46.4062 64.6673ZM62.3525 16.6077C63.6263 19.5962 64.3611 22.4131 64.5571 25.0586C64.7531 27.7041 64.6061 30.1413 64.1162 32.3704C63.6263 34.5995 62.9159 36.5958 61.9851 38.3595C61.0543 40.1231 60.0867 41.6663 59.0824 42.9891C58.0781 44.3118 57.1351 45.4019 56.2532 46.2592C55.3714 47.1165 54.759 47.6922 54.4161 47.9861C53.9262 48.427 53.473 48.7577 53.0566 48.9782C52.6402 49.1986 52.2728 49.3823 51.9543 49.5293C51.6359 49.6763 51.3297 49.8477 51.0357 50.0437C50.7418 50.2397 50.4479 50.5581 50.1539 50.999C49.517 51.9298 49.0271 52.8361 48.6842 53.718C48.3413 54.5998 48.0473 55.4571 47.8024 56.29C47.5574 56.9758 47.288 57.5392 46.994 57.9801C46.7001 58.4211 46.3817 58.813 46.0387 59.1559C45.6468 59.5478 45.2549 59.8663 44.863 60.1112H28.6961C28.3042 59.8663 27.9368 59.5478 27.5938 59.1559C27.2509 58.813 26.908 58.3721 26.565 57.8332C26.2221 57.2943 25.9282 56.6084 25.6832 55.7756C25.1933 54.3548 24.5932 53.2158 23.8828 52.3585C23.1725 51.5012 22.2539 50.6561 21.1271 49.8232C20.3433 49.2354 19.4492 48.4515 18.4449 47.4717C17.4406 46.4919 16.4485 45.3406 15.4687 44.0179C14.4889 42.6951 13.5581 41.2132 12.6763 39.572C11.7944 37.9308 11.0841 36.1304 10.5452 34.1708C10.0063 32.2112 9.68785 30.1168 9.58987 27.8878C9.49189 25.6587 9.71235 23.3194 10.2512 20.8699C11.0841 16.9507 12.5293 13.6561 14.5869 10.9861C16.6445 8.31612 18.947 6.17279 21.4945 4.55611C24.042 2.93942 26.6753 1.7759 29.3942 1.06554C32.1132 0.355181 34.575 9.63542e-08 36.7795 1.44531e-07C39.0821 1.44531e-07 41.4826 0.318438 43.9811 0.955313C46.4796 1.59219 48.8924 2.58424 51.2195 3.93148C53.5465 5.27872 55.6776 6.99338 57.6127 9.07547C59.5478 11.1576 61.1278 13.6683 62.3525 16.6077ZM54.9305 31.5988C57.0371 23.0255 54.2936 16.4853 46.7001 11.9782C45.4263 11.1943 43.9444 10.5819 42.2542 10.141C40.564 9.7001 38.8371 9.47964 37.0735 9.47964C35.3098 9.47964 33.5584 9.7001 31.8193 10.141C30.0801 10.5819 28.5247 11.2678 27.1529 12.1986C23.8216 14.5012 21.568 16.9997 20.3923 19.6941C19.2165 22.3886 18.6776 25.2301 18.7756 28.2185C18.8246 29.8841 19.1063 31.3784 19.6207 32.7011C20.1351 34.0238 20.7474 35.2241 21.4578 36.3019C22.1682 37.3797 22.903 38.3227 23.6624 39.1311C24.4217 39.9394 25.0953 40.662 25.6832 41.2989C26.908 42.5727 27.9858 43.6872 28.9166 44.6425C29.8474 45.5978 30.5823 46.8103 31.1212 48.28C31.66 49.7008 32.5051 50.5703 33.6564 50.8888C34.8077 51.2072 35.8732 51.3664 36.853 51.3664C38.1268 51.3664 39.3515 51.0847 40.5273 50.5214C41.7031 49.958 42.5359 49.0884 43.0258 47.9126C43.2708 47.2267 43.7729 46.3939 44.5323 45.4141C45.2916 44.4343 46.4307 43.0626 47.9494 41.2989C48.7332 40.3681 49.4803 39.5597 50.1907 38.8739C50.901 38.188 51.5624 37.5022 52.1748 36.8163C52.7872 36.1304 53.326 35.3833 53.7915 34.575C54.2569 33.7666 54.6365 32.7746 54.9305 31.5988Z" fill="var(--fill-0, black)"/>
</g>
<defs>
<clipPath id="clip0_0_23">
<rect width="74" height="74" fill="white"/>
</clipPath>
</defs>
</svg>
