<svg preserveAspectRatio="none" width="100%" height="100%" overflow="visible" style="display: block;" viewBox="0 0 74 74" fill="none" xmlns="http://www.w3.org/2000/svg">
<g id="&#232;&#174;&#190;&#232;&#174;&#161; 1">
<path id="Vector" d="M23.4333 34.1222L9.86667 20.5556L20.5556 9.86667L34.1222 23.4333L37 20.5556L20.5556 4.11111L4.11111 20.5556L20.5556 37L23.4333 34.1222ZM50.5667 39.8778L64.1333 53.4444L53.4444 64.1333L39.8778 50.5667L37 53.4444L53.4444 69.8889L69.8889 53.4444L53.4444 37L50.5667 39.8778Z" fill="var(--fill-0, black)"/>
<path id="Vector_2" d="M12.313 23.648L19.8692 16.0918L22.7758 18.9984L15.2195 26.5546L12.313 23.648ZM20.3749 32.0881L17.4683 29.1816L25.0287 21.6254L27.9352 24.5319L20.3749 32.0881ZM41.913 53.248L49.4692 45.6918L52.3758 48.5984L44.8195 56.1546L41.913 53.248ZM47.2574 58.5925L54.8137 51.0362L57.7202 53.9428L50.164 61.499L47.2574 58.5925Z" fill="var(--fill-0, black)"/>
<path id="Vector_3" d="M53.4444 9.86667L64.1333 20.5556L20.5556 64.1333L9.86667 53.4444L53.4444 9.86667ZM53.4444 4.11111L4.11111 53.4444L20.5556 69.8889L69.8889 20.5556L53.4444 4.11111Z" fill="var(--fill-0, black)"/>
<path id="Vector_4" d="M4.11133 53.4453H8.22244V69.8898H4.11133V53.4453Z" fill="var(--fill-0, black)"/>
<path id="Vector_5" d="M4.11111 65.7773H20.5556V69.8885H4.11111V65.7773Z" fill="var(--fill-0, black)"/>
</g>
</svg>
