<svg preserveAspectRatio="none" width="100%" height="100%" overflow="visible" style="display: block;" viewBox="0 0 74 74" fill="none" xmlns="http://www.w3.org/2000/svg">
<g id="&#228;&#191;&#157;&#232;&#175;&#129;&#38;&#233;&#162;&#132;&#232;&#174;&#162;&#230;&#136;&#191;&#233;&#151;&#180;&#228;&#191;&#157;&#232;&#175;&#129; 1">
<path id="Vector" d="M35.4876 4.83239C36.4674 4.49337 37.5326 4.49337 38.5124 4.83239L61.6374 12.8336C62.5462 13.1481 63.3344 13.7381 63.8923 14.5214C64.4502 15.3048 64.75 16.2426 64.75 17.2043V40.4495C64.75 50.4349 56.2076 59.93 39.1229 68.9349C38.4666 69.2806 37.7368 69.4634 36.995 69.4678C36.2533 69.4722 35.5213 69.2982 34.8609 68.9603C17.7877 60.2353 9.25 50.7309 9.25 40.4472V17.2043C9.25002 16.2426 9.54984 15.3048 10.1077 14.5214C10.6656 13.7381 11.4538 13.1481 12.3626 12.8336L35.4876 4.83239ZM37 9.20764L13.875 17.202V40.4495C13.875 48.5872 21.2727 56.822 36.9653 64.8418C52.6926 56.5538 60.125 48.2935 60.125 40.4495V17.202L37 9.20532V9.20764ZM50.5674 26.3225L50.7177 26.4705C51.1315 26.8846 51.3639 27.446 51.3639 28.0314C51.3639 28.6168 51.1315 29.1782 50.7177 29.5923L37.4856 42.8221C37.0715 43.2359 36.5101 43.4683 35.9247 43.4683C35.3393 43.4683 34.7779 43.2359 34.3637 42.8221L26.0388 34.4971C25.625 34.083 25.3926 33.5216 25.3926 32.9362C25.3926 32.3508 25.625 31.7894 26.0388 31.3753L26.1891 31.2273C26.6032 30.8135 27.1646 30.5811 27.75 30.5811C28.3354 30.5811 28.8968 30.8135 29.3109 31.2273L35.9247 37.8456L47.4456 26.3225C47.8597 25.9087 48.4211 25.6763 49.0065 25.6763C49.5919 25.6763 50.1533 25.9087 50.5674 26.3225Z" fill="var(--fill-0, black)"/>
</g>
</svg>
