<svg preserveAspectRatio="none" width="100%" height="100%" overflow="visible" style="display: block;" viewBox="0 0 74 74" fill="none" xmlns="http://www.w3.org/2000/svg">
<g id="&#229;&#136;&#182;&#233;&#128;&#160; 1">
<path id="Vector" d="M27.8633 73.106C27.3836 73.106 26.9401 72.9579 26.5348 72.7001C25.9071 72.2572 25.5748 71.5558 25.5748 70.8175V62.2523H21.2557V70.6319C21.2557 71.3702 20.8865 72.0716 20.2956 72.5151C19.6679 72.9579 18.8928 73.0692 18.1913 72.8106C11.7672 70.4845 7.48492 64.4671 7.48492 57.7851C7.48492 52.1368 10.4749 46.9313 15.2744 44.1255V28.8421C10.5117 26.0364 7.48492 20.8309 7.48492 15.1826C7.48492 8.61185 11.8777 2.40949 18.1538 0.194665C18.8552 -0.0639473 19.6303 0.0472994 20.2581 0.490119C20.8858 0.932939 21.2181 1.63437 21.2181 2.37337V10.9379H25.5741V2.37264C25.5741 1.63365 25.9432 0.932939 26.5341 0.489397C27.1619 0.046577 27.937 -0.0646697 28.6384 0.193943C35.025 2.48245 39.3073 8.5006 39.3073 15.1819C39.3073 20.7565 36.2805 26.0357 31.5178 28.9895V44.3105C36.2805 47.0794 39.3073 52.2848 39.3073 57.97C39.3073 64.652 35.025 70.7063 28.6384 72.9587C28.4166 73.0692 28.158 73.106 27.8633 73.106ZM18.9289 57.6008H27.8626C29.1549 57.6008 30.1886 58.6346 30.1886 59.9269V67.0149C32.9944 64.9106 34.7295 61.6252 34.7295 58.0068C34.7295 53.6877 32.1456 49.6265 28.3061 47.8545C27.4942 47.4853 26.9769 46.6734 26.9769 45.7502V27.661C26.9769 26.7747 27.4566 25.9996 28.2693 25.5936C32.1456 23.5998 34.6927 19.5017 34.6927 15.1826C34.6927 11.5281 32.9944 8.27955 30.1518 6.17526V13.2633C30.1518 14.5556 29.1181 15.5893 27.8257 15.5893H18.9289C17.6365 15.5893 16.6028 14.5556 16.6028 13.2633V6.24894C13.8708 8.35324 12.0988 11.6755 12.0988 15.1826C12.0988 19.5017 14.6827 23.563 18.5222 25.335C19.3341 25.7041 19.8514 26.5161 19.8514 27.4393V45.5284C19.8514 46.4148 19.3341 47.2636 18.5222 47.6327C14.6827 49.4047 12.0988 53.4652 12.0988 57.7851C12.0988 61.4396 13.7971 64.6889 16.6397 66.7931V59.9269C16.6404 58.6346 17.6741 57.6008 18.9289 57.6008ZM60.3502 73.8812H48.6845C45.251 73.8812 42.4821 71.1123 42.4821 67.6788V42.3904C42.4821 39.105 45.0661 36.4098 48.3154 36.188V21.5699L44.6608 14.297C44.3654 13.7061 44.3285 13.0046 44.5871 12.4145L48.4634 2.70494C48.7957 1.8193 49.6445 1.26523 50.6046 1.26523H58.394C59.3541 1.26523 60.2029 1.85614 60.5351 2.70494L64.4114 12.4145C64.6701 13.0422 64.6332 13.7068 64.3378 14.297L60.6832 21.5699V36.2256C63.9318 36.4098 66.5157 39.105 66.5157 42.428V67.7164C66.5526 71.1123 63.7837 73.8812 60.3502 73.8812ZM48.6845 40.8402C47.835 40.8402 47.0967 41.5784 47.0967 42.428V67.7164C47.0967 68.602 47.7981 69.3034 48.6845 69.3034H60.3502C61.1997 69.3034 61.938 68.5651 61.938 67.7164V42.428C61.938 41.5784 61.1997 40.8402 60.3502 40.8402H58.394C57.1017 40.8402 56.0679 39.8064 56.0679 38.5517V21.0159C56.0679 20.6467 56.1416 20.3144 56.3266 19.9821L59.7593 13.1152L56.8431 5.8054H52.1916L49.2754 13.1152L52.7089 19.9821C52.8562 20.3144 52.9675 20.6467 52.9675 21.0159V38.5148C52.9675 39.8072 51.9338 40.8033 50.6414 40.8033H48.6845V40.8402Z" fill="var(--fill-0, black)"/>
</g>
</svg>
