<svg preserveAspectRatio="none" width="100%" height="100%" overflow="visible" style="display: block;" viewBox="0 0 74 74" fill="none" xmlns="http://www.w3.org/2000/svg">
<g id="&#233;&#155;&#134;&#230;&#136;&#144;&#230;&#137;&#147;&#229;&#140;&#133; 1">
<path id="Vector" d="M69.8236 17.832L38.6002 1.54741C38.1083 1.29073 37.5618 1.15592 37.0069 1.15431C36.452 1.1527 35.9048 1.28434 35.4113 1.53816L4.19719 17.5707C3.62964 17.8618 3.1534 18.3037 2.82087 18.848C2.48835 19.3923 2.31243 20.0178 2.3125 20.6556V53.8122C2.3125 55.128 3.05712 56.3305 4.23419 56.9179L35.4529 72.481C35.9335 72.7205 36.4631 72.8451 37 72.8451C37.5369 72.8451 38.0665 72.7205 38.5471 72.481L69.7658 56.9179C70.3429 56.6303 70.8284 56.1876 71.1679 55.6394C71.5073 55.0913 71.6873 54.4593 71.6875 53.8145V20.91C71.6875 19.615 70.9683 18.431 69.8236 17.832ZM36.7387 33.5085L25.0189 27.7411L51.5664 13.5262L63.0133 19.497L36.7387 33.5085ZM36.9908 5.92497L46.6015 10.9385L19.9129 25.2297L9.44194 20.0752L36.9908 5.92497ZM6.9375 23.9995L18.0098 29.4477V41.6069C18.0098 42.2202 18.2534 42.8084 18.6871 43.242C19.1207 43.6757 19.7089 43.9194 20.3223 43.9194C20.9356 43.9194 21.5238 43.6757 21.9574 43.242C22.3911 42.8084 22.6348 42.2202 22.6348 41.6069V31.7255L34.6875 37.6525V66.9333L6.9375 53.0977V23.9995ZM39.3125 66.9333V37.375L67.0625 22.5796V53.0977L39.3125 66.9333Z" fill="var(--fill-0, black)"/>
</g>
</svg>
