<svg preserveAspectRatio="none" width="100%" height="100%" overflow="visible" style="display: block;" viewBox="0 0 60 60" fill="none" xmlns="http://www.w3.org/2000/svg">
<g id="&#231;&#190;&#164;&#231;&#187;&#132;2 1" clip-path="url(#clip0_0_4)">
<path id="Vector" d="M46.5554 18.5773H46.416C41.144 18.41 37.2109 14.3375 37.2109 9.31654C37.2109 4.18404 41.395 0.027832 46.4996 0.027832C51.6042 0.0278321 55.7883 4.21193 55.7883 9.31654C55.7918 11.7284 54.8561 14.0469 53.1795 15.7808C51.5029 17.5146 49.2171 18.5277 46.8065 18.6052C46.8065 18.5773 46.8065 18.5773 46.7786 18.5773H46.5554ZM41.395 9.28864C41.395 12.0501 43.5429 14.2817 46.3044 14.3932C46.3323 14.3654 46.5554 14.3654 46.8065 14.3932C48.1272 14.3062 49.3627 13.71 50.2527 12.7302C51.1427 11.7505 51.6179 10.4637 51.5781 9.14062C51.5384 7.81758 50.9868 6.56158 50.0395 5.63707C49.0923 4.71255 47.8233 4.19165 46.4996 4.18404C43.6823 4.18404 41.395 6.47135 41.395 9.28864Z" fill="var(--fill-0, #A67237)"/>
<path id="Vector_2" d="M43.5426 38.8564C43.2713 38.8093 43.012 38.709 42.7795 38.5614C42.547 38.4138 42.346 38.2218 42.1879 37.9963C42.0299 37.7708 41.9178 37.5164 41.8583 37.2476C41.7988 36.9787 41.7929 36.7008 41.841 36.4296C41.8882 36.1583 41.9884 35.899 42.136 35.6666C42.2836 35.4341 42.4757 35.2331 42.7011 35.075C42.9266 34.9169 43.181 34.8049 43.4499 34.7454C43.7187 34.6858 43.9967 34.68 44.2678 34.7281C47.6988 35.3139 51.325 34.6723 53.7518 33.0545C55.0628 32.1897 55.7601 31.1019 55.7601 30.014C55.7601 28.9261 55.0349 27.8662 53.7518 27.0015C51.325 25.3836 47.643 24.742 44.1841 25.3557C43.0405 25.5789 41.9526 24.7978 41.7574 23.6542C41.5621 22.5105 42.3152 21.4227 43.4589 21.2274C48.0056 20.4185 52.7197 21.2832 56.067 23.5147C58.5216 25.1605 59.9442 27.5036 59.9442 30.014C59.9442 32.4966 58.5495 34.8676 56.067 36.5412C53.5286 38.2148 50.2371 39.1354 46.8062 39.1354C45.7183 39.1354 44.6304 39.0517 43.5426 38.8564Z" fill="var(--fill-0, #A67237)"/>
<path id="Vector_3" d="M13.1656 18.5774C10.7591 18.5021 8.47622 17.4936 6.79994 15.7652C5.12367 14.0369 4.18544 11.7243 4.18372 9.3166C4.18372 4.1841 8.36782 0 13.4724 0C18.577 0 22.7611 4.1841 22.7611 9.2887C22.7611 14.3375 18.8281 18.41 13.8072 18.5774L13.2214 16.4854L13.4166 18.5774H13.1656ZM13.9745 14.4212C16.4571 14.3096 18.6328 12.0781 18.6328 9.3166C18.6313 8.31921 18.3377 7.34411 17.7881 6.51176C17.2386 5.67941 16.4573 5.02628 15.5407 4.63307C14.6241 4.23985 13.6124 4.12377 12.6305 4.29918C11.6487 4.47458 10.7397 4.93378 10.016 5.62004C9.29219 6.3063 8.78533 7.18956 8.55799 8.16069C8.33065 9.13182 8.39278 10.1483 8.73672 11.0845C9.08066 12.0207 9.69133 12.8356 10.4933 13.4286C11.2953 14.0216 12.2534 14.3667 13.2493 14.4212C13.2772 14.3933 13.3887 14.3933 13.5003 14.3933C13.6677 14.3933 13.8072 14.3933 13.9745 14.4212Z" fill="var(--fill-0, #A67237)"/>
<path id="Vector_4" d="M3.93195 36.5412C1.47728 34.8955 0.0546875 32.5245 0.0546875 30.014C0.0546875 27.5314 1.47728 25.1605 3.93195 23.5147C7.27923 21.2832 11.9933 20.4185 16.54 21.2274C17.6837 21.4227 18.4368 22.5105 18.2416 23.6542C18.0463 24.7978 16.9585 25.5789 15.8148 25.3557C12.3559 24.742 8.70183 25.3836 6.24716 27.0015C4.93614 27.8662 4.23879 28.9261 4.23879 30.014C4.23879 31.1019 4.96403 32.1897 6.24716 33.0545C8.67393 34.6723 12.3002 35.3139 15.7311 34.7281C16.8748 34.5328 17.9626 35.3139 18.1579 36.4296C18.3532 37.5733 17.6 38.6612 16.4564 38.8564C15.3685 39.0517 14.2806 39.1354 13.1928 39.1354C9.7618 39.1354 6.47031 38.2148 3.93195 36.5412Z" fill="var(--fill-0, #A67237)"/>
<path id="Vector_5" d="M29.8178 39.4143H29.6783C24.4064 39.2469 20.4733 35.1744 20.4733 30.1535C20.4733 25.021 24.6574 20.8647 29.762 20.8647C34.8666 20.8647 39.0507 25.0488 39.0507 30.1535C39.0542 32.5653 38.1185 34.8838 36.4419 36.6177C34.7653 38.3516 32.4795 39.3646 30.0689 39.4422C30.0689 39.4143 30.0689 39.4143 30.041 39.4143H29.8178ZM24.6574 30.1256C24.6574 32.8871 26.8053 35.1186 29.5668 35.2302C29.5947 35.2023 29.8178 35.2023 30.0689 35.2302C32.7746 35.0907 34.8666 32.8592 34.8945 30.1256C34.8945 27.3362 32.6072 25.021 29.762 25.021C26.9447 25.021 24.6574 27.3083 24.6574 30.1256ZM20.7523 57.378C18.2976 55.7323 16.875 53.3892 16.875 50.8787C16.875 48.3961 18.2697 45.9972 20.7523 44.3515C25.9684 40.8926 34.1414 40.8926 39.3297 44.3515C41.7843 45.9972 43.2069 48.3403 43.2069 50.8508C43.2069 53.3334 41.8122 55.7323 39.3297 57.378C36.7355 59.1074 33.3882 60 30.041 60C26.6937 60 23.3464 59.1353 20.7523 57.378ZM21.0591 50.9066C21.0591 51.9945 21.7843 53.0544 23.0675 53.9191C26.8332 56.4575 33.2209 56.4575 36.9866 53.9191C38.2976 53.0544 38.9949 51.9666 38.9949 50.8787C38.9949 49.7908 38.2697 48.7309 36.9866 47.8661C33.2488 45.3278 26.8611 45.3557 23.0675 47.8661C21.7564 48.7309 21.0591 49.8187 21.0591 50.9066Z" fill="var(--fill-0, #A67237)"/>
</g>
<defs>
<clipPath id="clip0_0_4">
<rect width="60" height="60" fill="white"/>
</clipPath>
</defs>
</svg>
