<svg preserveAspectRatio="none" width="100%" height="100%" overflow="visible" style="display: block;" viewBox="0 0 60 60" fill="none" xmlns="http://www.w3.org/2000/svg">
<g id="&#229;&#133;&#172;&#229;&#143;&#184;&#231;&#174;&#161;&#231;&#144;&#134; 1">
<path id="Vector" d="M41.4258 4.93359L45.8789 8.19141C46.3242 8.50781 46.6875 9.22266 46.6875 9.76172V33C48.082 33.0586 49.4414 33.2812 50.7187 33.6914V7.79297C50.7187 7.25391 50.3555 6.53906 49.9102 6.22266L42.1523 0.5625C41.7187 0.246094 40.9219 0.117188 40.3945 0.28125L16.7227 6.67969C16.1953 6.85547 15.7617 7.42969 15.7617 7.96875V12.6211H15.7852C15.7852 13.7109 16.6875 14.5898 17.8008 14.5898C18.9141 14.5898 19.8164 13.7109 19.8164 12.6211V10.6055C19.9102 10.125 20.2852 9.65625 20.7539 9.50391L39.6562 4.65234C40.1953 4.48828 40.9805 4.61719 41.4258 4.93359ZM56.6719 45.6562H54.7383C54.5391 44.9766 54.2812 44.332 53.9297 43.7227L55.3242 42.3398C55.9453 41.7187 55.9453 40.6992 55.3242 40.0781L54.1875 38.9414C53.5664 38.3203 52.5469 38.3203 51.9258 38.9414L50.5078 40.3594C49.9453 40.0547 49.3359 39.8086 48.7031 39.6328V37.6992C48.7031 36.8203 47.9883 36.1055 47.1094 36.1055H45.5156C44.6367 36.1055 43.9219 36.8203 43.9219 37.6992V39.6328C43.2656 39.8203 42.6445 40.0664 42.0586 40.3945L40.5937 38.9414C40.2891 38.6367 39.8906 38.4727 39.4687 38.4727C39.0469 38.4727 38.6367 38.6367 38.332 38.9414L37.1953 40.0781C36.5742 40.6992 36.5742 41.7187 37.1953 42.3398L38.6484 43.793C38.3203 44.3789 38.0625 45 37.8867 45.6562H35.9531C35.0742 45.6562 34.3594 46.3711 34.3594 47.25V48.8437C34.3594 49.7227 35.0742 50.4375 35.9531 50.4375H37.8867C38.0625 51.0703 38.3086 51.668 38.6133 52.2422L37.1953 53.6484C36.5742 54.2695 36.5742 55.2891 37.1953 55.9102L38.332 57.0469C38.9531 57.668 39.9727 57.668 40.5937 57.0469L41.9883 55.6523C42.5977 56.0039 43.2422 56.2734 43.9219 56.4492V58.3828C43.9219 58.8047 44.0859 59.2148 44.3906 59.5078C44.6836 59.8008 45.0937 59.9766 45.5156 59.9766H47.1094C47.5312 59.9766 47.9414 59.8125 48.2344 59.5078C48.5273 59.2148 48.7031 58.8047 48.7031 58.3828V56.4492C49.3477 56.2734 49.9805 56.0156 50.5664 55.6875L51.9258 57.0352C52.5469 57.6563 53.5664 57.6563 54.1875 57.0352L55.3242 55.8984C55.9453 55.2773 55.9453 54.2578 55.3242 53.6367L53.9766 52.2891C54.3047 51.7031 54.5625 51.0703 54.7383 50.4258H56.6719C57.0937 50.4258 57.5039 50.2617 57.7969 49.957C58.0898 49.6641 58.2656 49.2539 58.2656 48.832V47.2383C58.2656 46.3711 57.5508 45.6562 56.6719 45.6562ZM48.9492 52.6172C47.3203 53.5664 45.3164 53.5664 43.6875 52.6172C42.0586 51.668 41.0742 49.9219 41.0859 48.0352C41.1211 45.1758 43.4531 42.8672 46.3125 42.8672C49.1719 42.8672 51.5039 45.1641 51.5391 48.0352C51.5742 49.9219 50.5781 51.668 48.9492 52.6172Z" fill="var(--fill-0, #A67237)"/>
<path id="Vector_2" d="M41.8594 16.7227L34.2305 10.793C33.7969 10.4531 33.0117 10.3359 32.4961 10.5352L6.69141 20.4844C6.17578 20.6836 5.75391 21.3047 5.75391 21.8555L5.74219 52.125H3.73828C2.625 52.125 1.72266 53.6484 1.72266 54.7617C1.72266 55.875 2.625 56.7773 3.73828 56.7773H34.1016C32.25 54.2227 31.2422 51.1523 31.2422 47.9883C31.2422 40.9453 36.1055 35.0391 42.6563 33.4219V18.3516C42.6563 17.7891 42.293 17.0625 41.8594 16.7227ZM26.9063 52.3242L11.3086 52.125L11.3203 25.6406C11.3203 25.0898 11.7422 24.4687 12.2578 24.2695L31.8633 16.793C32.3789 16.5938 33.1641 16.7109 33.5977 17.0508L36.2813 19.8867C36.7148 20.2266 37.0781 20.9531 37.0781 21.5156V30.3398C28.2773 33.4922 24.3633 43.3945 26.9063 52.3242Z" fill="var(--fill-0, #A67237)"/>
<path id="Vector_3" d="M29.2031 29.0508C29.2031 30.3047 28.3945 31.3125 27.3984 31.3125H15.4219C14.4258 31.3125 13.6172 30.3047 13.6172 29.0508C13.6172 27.7969 14.4258 26.7891 15.4219 26.7891H27.4102C28.4062 26.7891 29.2031 27.8086 29.2031 29.0508ZM24.5156 37.6289C24.5156 38.8828 23.707 39.8906 22.7109 39.8906H15.3281C14.332 39.8906 13.5234 38.8828 13.5234 37.6289C13.5234 36.375 14.332 35.3672 15.3281 35.3672H22.7109C23.707 35.3672 24.5156 36.375 24.5156 37.6289ZM22.8633 46.1602C22.8633 47.4141 22.0547 48.4219 21.0586 48.4219H15.3281C14.332 48.4219 13.5234 47.4141 13.5234 46.1602C13.5234 44.9062 14.332 43.8984 15.3281 43.8984H21.0586C22.0547 43.8984 22.8633 44.918 22.8633 46.1602Z" fill="var(--fill-0, #A67237)"/>
</g>
</svg>
