<svg preserveAspectRatio="none" width="100%" height="100%" overflow="visible" style="display: block;" viewBox="0 0 60 60" fill="none" xmlns="http://www.w3.org/2000/svg">
<g id="08&#232;&#180;&#168;&#233;&#135;&#143;-&#231;&#186;&#191;&#230;&#128;&#167; 1">
<path id="Vector" d="M30 7.875L46.9687 15.7031V27.6562C46.9687 33.3281 45.1406 39 41.7656 43.6406C38.6719 47.9531 34.5 51.0469 30 52.4531C25.4531 51.0469 21.3281 47.9531 18.2344 43.6406C14.8594 39 13.0312 33.3281 13.0312 27.6562V15.7031L30 7.875ZM30 3.70312L9.28125 13.2656V27.6094C9.28125 40.875 18.1406 53.25 30 56.2969C41.9062 53.2969 50.7187 40.875 50.7187 27.6094V13.2656L30 3.70312ZM41.2031 29.9062C41.2031 23.6719 36.1875 18.6562 29.9531 18.6562C23.7188 18.6562 18.7031 23.6719 18.7031 29.9062C18.7031 36.1406 23.7188 41.1563 29.9531 41.1563C31.3594 41.1563 32.6719 40.875 33.9375 40.4531L37.3594 43.875L40.0313 41.2031L37.2656 38.4375C39.6562 36.375 41.2031 33.3281 41.2031 29.9062ZM29.9531 37.4063C25.8281 37.4063 22.4531 34.0312 22.4531 29.9062C22.4531 25.7812 25.8281 22.4062 29.9531 22.4062C34.0781 22.4062 37.4531 25.7812 37.4531 29.9062C37.4531 32.2969 36.3281 34.4063 34.5938 35.7656L32.0625 33.2344L29.3906 35.9062L30.8438 37.3594C30.5625 37.3594 30.2344 37.4063 29.9531 37.4063Z" fill="var(--fill-0, #A67237)"/>
</g>
</svg>
