<svg preserveAspectRatio="none" width="100%" height="100%" overflow="visible" style="display: block;" viewBox="0 0 60 60" fill="none" xmlns="http://www.w3.org/2000/svg">
<g id="&#228;&#190;&#155;&#229;&#186;&#148;&#233;&#147;&#190; 1">
<path id="Vector" d="M50.925 27.85C49.629 27.8347 48.3577 28.2043 47.2718 28.9119C46.186 29.6194 45.3344 30.6333 44.825 31.825L41.1 31.025C41.1257 30.6671 41.1257 30.3079 41.1 29.95C41.0843 27.9068 40.4727 25.9126 39.3404 24.2118C38.208 22.5111 36.604 21.1776 34.725 20.375L36.45 16.175C36.8496 16.1998 37.2504 16.1998 37.65 16.175C39.3459 16.2291 40.9943 15.6101 42.2355 14.4532C43.4767 13.2964 44.2098 11.6955 44.275 10C44.1718 8.32953 43.4355 6.76128 42.2162 5.61488C40.9968 4.46848 39.3861 3.83024 37.7125 3.83024C36.0389 3.83024 34.4282 4.46848 33.2088 5.61488C31.9895 6.76128 31.2532 8.32953 31.15 10C31.1587 11.1497 31.4857 12.2745 32.0947 13.2498C32.7037 14.225 33.5708 15.0125 34.6 15.525L32.875 19.725C31.9351 19.4887 30.9692 19.3711 30 19.375C27.4185 19.3804 24.9154 20.2618 22.9 21.875L14.425 13.675C15.2307 12.6188 15.6696 11.3284 15.675 10C15.6292 8.30022 14.9114 6.68792 13.6789 5.5164C12.4465 4.34488 10.7999 3.70968 9.1 3.75C8.25618 3.7267 7.41604 3.86992 6.62759 4.17146C5.83914 4.473 5.11783 4.92695 4.5049 5.50738C3.89197 6.0878 3.39943 6.78333 3.05542 7.55419C2.7114 8.32506 2.52267 9.15616 2.5 10C2.51944 10.846 2.70579 11.6798 3.04836 12.4535C3.39094 13.2273 3.88298 13.9257 4.49624 14.5088C5.10949 15.0918 5.83189 15.548 6.62194 15.8511C7.41199 16.1542 8.25413 16.2983 9.1 16.275C10.474 16.2434 11.8068 15.7991 12.925 15L21.475 23.25C19.874 25.1165 18.988 27.491 18.975 29.95C18.9769 31.9935 19.5955 33.9889 20.75 35.675L13.5 41.125C12.2742 40.0562 10.7014 39.4697 9.075 39.475C8.20725 39.3973 7.33284 39.5012 6.50743 39.78C5.68202 40.0587 4.92371 40.5064 4.28079 41.0943C3.63786 41.6822 3.12441 42.3976 2.77313 43.1949C2.42184 43.9921 2.24042 44.8538 2.24042 45.725C2.24042 46.5962 2.42184 47.4579 2.77313 48.2551C3.12441 49.0524 3.63786 49.7678 4.28079 50.3557C4.92371 50.9436 5.68202 51.3913 6.50743 51.67C7.33284 51.9488 8.20725 52.0527 9.075 51.975C9.91552 51.9949 10.7517 51.8491 11.5359 51.5457C12.32 51.2424 13.0367 50.7875 13.6449 50.2071C14.2532 49.6267 14.7411 48.9321 15.0809 48.163C15.4206 47.394 15.6055 46.5655 15.625 45.725C15.6213 44.6649 15.3459 43.6233 14.825 42.7L22.075 37.25C24.2063 39.3497 27.0832 40.5184 30.075 40.5C31.4578 40.506 32.8301 40.2603 34.125 39.775L37.225 45C36.4136 45.5606 35.7476 46.3067 35.2824 47.1763C34.8171 48.0459 34.5661 49.0139 34.55 50C34.4851 51.3123 34.8148 52.614 35.4966 53.7371C36.1785 54.8603 37.1812 55.7533 38.3755 56.3012C39.5697 56.849 40.9008 57.0265 42.1968 56.8107C43.4929 56.5949 44.6946 55.9958 45.6469 55.0905C46.5992 54.1853 47.2585 53.0155 47.5397 51.732C47.8208 50.4485 47.711 49.1102 47.2243 47.8897C46.7377 46.6693 45.8965 45.6226 44.8094 44.8847C43.7222 44.1468 42.4389 43.7516 41.125 43.75C40.4818 43.75 39.8419 43.8426 39.225 44.025L36.1 38.85C38.2463 37.5402 39.8585 35.5116 40.65 33.125L44.375 33.925V34.125C44.31 35.4384 44.6403 36.7411 45.3233 37.8648C46.0062 38.9885 47.0104 39.8816 48.2062 40.4288C49.4019 40.9759 50.7343 41.152 52.0311 40.9341C53.3279 40.7163 54.5296 40.1147 55.481 39.2069C56.4323 38.2991 57.0897 37.1269 57.368 35.8417C57.6463 34.5565 57.5329 33.2174 57.0424 31.9973C56.5519 30.7772 55.7068 29.7323 54.6163 28.9974C53.5258 28.2626 52.24 27.8716 50.925 27.875V27.85ZM30 38.5C28.8673 38.5165 27.7425 38.3098 26.6897 37.8915C25.6369 37.4733 24.6769 36.8518 23.8643 36.0625C23.0518 35.2731 22.4027 34.3315 21.9541 33.2913C21.5056 32.2511 21.2663 31.1327 21.25 30C21.3283 27.7431 22.2886 25.6069 23.9247 24.0504C25.5607 22.4938 27.742 21.6409 30 21.675C32.2794 21.6076 34.4927 22.4455 36.1559 24.0056C37.819 25.5657 38.7967 27.721 38.875 30C38.8589 31.1434 38.6156 32.2723 38.1592 33.3208C37.7028 34.3693 37.0425 35.3166 36.2166 36.1076C35.3908 36.8986 34.4158 37.5174 33.3486 37.9282C32.2813 38.3389 31.1431 38.5333 30 38.5Z" fill="var(--fill-0, #A67237)"/>
</g>
</svg>
