<svg preserveAspectRatio="none" width="100%" height="100%" overflow="visible" style="display: block;" viewBox="0 0 46 46" fill="none" xmlns="http://www.w3.org/2000/svg">
  <g id="&#228;&#184;&#128;&#232;&#135;&#180;&#230;&#128;&#167;&#231;&#168;&#189;&#230;&#160;&#184; 1">
    <path id="Vector" d="M24.1211 11.2918C24.1211 10.8561 24.2942 10.4382 24.6023 10.1301C24.9104 9.82201 25.3282 9.64893 25.764 9.64893H36.7163C37.152 9.64893 37.5699 9.82201 37.878 10.1301C38.1861 10.4382 38.3592 10.8561 38.3592 11.2918C38.3592 11.7275 38.1861 12.1454 37.878 12.4535C37.5699 12.7616 37.152 12.9346 36.7163 12.9346H25.764C25.3282 12.9346 24.9104 12.7616 24.6023 12.4535C24.2942 12.1454 24.1211 11.7275 24.1211 11.2918ZM24.1211 16.768C24.1211 16.3323 24.2942 15.9144 24.6023 15.6063C24.9104 15.2982 25.3282 15.1251 25.764 15.1251H31.2401C31.6759 15.1251 32.0937 15.2982 32.4018 15.6063C32.7099 15.9144 32.883 16.3323 32.883 16.768C32.883 17.2037 32.7099 17.6216 32.4018 17.9296C32.0937 18.2377 31.6759 18.4108 31.2401 18.4108H25.764C25.3282 18.4108 24.9104 18.2377 24.6023 17.9296C24.2942 17.6216 24.1211 17.2037 24.1211 16.768Z" fill="var(--fill-0, black)"/>
    <path id="Vector_2" d="M21.1994 7.45857C21.4152 7.45861 21.6289 7.41614 21.8282 7.33359C22.0276 7.25105 22.2087 7.13004 22.3613 6.97749C22.5139 6.82493 22.6349 6.64381 22.7175 6.44447C22.8001 6.24513 22.8426 6.03148 22.8426 5.81571C22.8426 5.59995 22.8001 5.3863 22.7175 5.18696C22.6349 4.98762 22.5139 4.8065 22.3613 4.65394C22.2087 4.50139 22.0276 4.38038 21.8282 4.29783C21.6289 4.21529 21.4152 4.17282 21.1994 4.17286C18.7062 4.17199 16.2372 4.66248 13.9335 5.61628C11.6299 6.57008 9.53686 7.96849 7.77396 9.7316C6.01105 11.4947 4.61288 13.5879 3.65934 15.8917C2.70581 18.1954 2.21561 20.6644 2.21676 23.1577C2.21561 25.651 2.70581 28.12 3.65934 30.4238C4.61288 32.7275 6.01105 34.8207 7.77396 36.5838C9.53686 38.3469 11.6299 39.7454 13.9335 40.6992C16.2372 41.653 18.7062 42.1434 21.1994 42.1426C23.6929 42.1437 26.1621 41.6535 28.466 40.6998C30.7699 39.7461 32.8632 38.3477 34.6263 36.5846C36.3895 34.8215 37.7878 32.7281 38.7415 30.4243C39.6952 28.1204 40.1854 25.6512 40.1843 23.1577C40.1842 22.7221 40.0111 22.3043 39.703 21.9962C39.3949 21.6882 38.9771 21.5151 38.5414 21.5151C38.1058 21.5151 37.6879 21.6882 37.3799 21.9962C37.0718 22.3043 36.8986 22.7221 36.8986 23.1577C36.8997 25.2197 36.4944 27.2617 35.7059 29.1669C34.9173 31.0721 33.761 32.8032 32.303 34.2613C30.8449 35.7193 29.1138 36.8756 27.2086 37.6642C25.3034 38.4527 23.2614 38.858 21.1994 38.8569C19.1376 38.8577 17.0959 38.4522 15.1909 37.6636C13.286 36.8749 11.5551 35.7185 10.0973 34.2605C8.63951 32.8025 7.48336 31.0715 6.69495 29.1664C5.90654 27.2613 5.50132 25.2195 5.50248 23.1577C5.50132 21.0959 5.90654 19.0541 6.69495 17.1491C7.48336 15.244 8.63951 13.513 10.0973 12.055C11.5551 10.5969 13.286 9.44056 15.1909 8.65188C17.0959 7.8632 19.1376 7.45771 21.1994 7.45857Z" fill="var(--fill-0, black)"/>
    <path id="Vector_3" d="M35.5536 37.5119C35.7062 37.3592 35.8873 37.2381 36.0867 37.1555C36.2861 37.0729 36.4998 37.0304 36.7157 37.0304C36.9315 37.0304 37.1452 37.0729 37.3446 37.1555C37.544 37.2381 37.7251 37.3592 37.8777 37.5119L41.5292 41.1634C41.8194 41.4749 41.9774 41.8868 41.9699 42.3124C41.9624 42.738 41.79 43.1441 41.489 43.4451C41.188 43.7461 40.7819 43.9185 40.3563 43.926C39.9307 43.9335 39.5188 43.7755 39.2073 43.4853L35.5536 39.836C35.401 39.6834 35.2798 39.5023 35.1972 39.3029C35.1146 39.1035 35.0721 38.8898 35.0721 38.674C35.0721 38.4581 35.1146 38.2444 35.1972 38.045C35.2798 37.8456 35.401 37.6645 35.5536 37.5119Z" fill="var(--fill-0, black)"/>
  </g>
</svg>
