<svg preserveAspectRatio="none" width="100%" height="100%" overflow="visible" style="display: block;" viewBox="0 0 46 46" fill="none" xmlns="http://www.w3.org/2000/svg">
  <g id="&#230;&#148;&#175;&#228;&#187;&#152;&#232;&#191;&#144;&#232;&#180;&#185; 1">
    <path id="Vector" d="M2.27539 21.063V33.4973C2.27539 35.0171 3.51869 36.2606 5.03863 36.2606H7.93999C8.49253 38.609 10.7029 40.4054 13.3284 40.4054C15.9534 40.4054 18.0256 38.609 18.7166 36.2606H27.4207C27.9734 38.609 30.1838 40.4054 32.8088 40.4054C35.4338 40.4054 37.5066 38.609 38.1973 36.2606H40.9604C42.4801 36.2606 43.7238 35.0171 43.7238 33.4973V23.8261H40.9604V32.5598C40.9604 32.5598 41.1457 33.4973 40.1835 33.4973H38.8506C38.2214 33.4973 37.7767 32.6448 37.7767 32.6448C36.9474 30.7278 34.968 29.3527 32.6708 29.3527C30.4363 29.3527 28.6023 30.6539 27.6801 32.4896C27.6801 32.4896 27.3031 33.4972 26.1926 33.4972H19.6411C18.8635 33.4972 18.0299 32.1152 18.0299 32.1152C17.0887 30.4794 15.2692 29.3527 13.19 29.3527C11.1105 29.3527 9.37781 30.4798 8.40413 32.1162C8.40413 32.1162 7.6489 33.4973 6.79759 33.4973H5.74305C5.74305 33.4973 5.03872 33.5684 5.03872 32.5135V21.9742C5.03872 21.3451 5.21661 21.166 5.21661 21.166L9.76926 13.1989C10.0549 12.6839 10.5361 12.7732 10.5361 12.7732H15.5232C15.8406 12.7748 16.0795 13.004 16.0915 13.3106L16.1031 19.0336C16.1031 19.3535 15.8565 19.5953 15.5288 19.5953H12.7908C12.028 19.5953 11.4095 20.2334 11.4095 21.02C11.4095 21.8066 12.028 22.4444 12.7908 22.4444H15.5286C17.4161 22.4444 18.9522 20.9145 18.9522 19.0335V10.7877L18.9407 10.7881V7.70287C18.9407 7.38289 19.1873 7.14112 19.5151 7.14112H27.7826C28.5452 7.14112 29.1639 6.503 29.1639 5.71655C29.1639 4.92988 28.5452 4.29199 27.7826 4.29199H19.515C17.6273 4.29199 16.0913 5.8219 16.0913 7.70296V9.47018C16.0789 9.77763 15.8386 10.0073 15.5195 10.0073H12.7818L12.7821 10.0101H10.0122C9.04525 10.0101 8.07808 10.5628 7.52559 11.3917L2.41357 20.3722C2.27539 20.6485 2.27539 20.7865 2.27539 21.063ZM29.9074 34.8792C29.9074 33.3593 31.1507 32.1158 32.6707 32.1158C34.1905 32.1158 35.4338 33.3593 35.4338 34.8793C35.4338 36.3992 34.1904 37.6424 32.6707 37.6424C31.1507 37.6424 29.9074 36.399 29.9074 34.8793V34.8792ZM10.565 34.8792C10.565 33.3593 11.8085 32.1158 13.3284 32.1158C14.8481 32.1158 16.0912 33.3593 16.0912 34.8793C16.0912 36.3992 14.848 37.6424 13.3284 37.6424C11.8085 37.6424 10.565 36.399 10.565 34.8793V34.8792Z" fill="var(--fill-0, black)"/>
    <path id="Vector_2" d="M31.3169 15.6246C30.6211 15.6246 30.0625 16.2459 30.0625 17.0181C30.0625 17.7928 30.6211 18.4139 31.3169 18.4139H35.5625V22.8073C35.5625 23.5819 36.1211 24.2121 36.8164 24.2121C37.5119 24.2121 38.0701 23.5907 38.0701 22.8164V18.4162H42.316C43.0113 18.4162 43.5705 17.7928 43.5705 17.0207C43.5705 16.246 43.0114 15.6248 42.316 15.6248H38.0701V12.5413H41.8929C42.5862 12.5413 43.1471 11.9177 43.1471 11.1455C43.1471 10.3733 42.5862 9.75192 41.8929 9.75192H39.6669L42.3925 6.4427C42.6183 6.15774 42.7347 5.80141 42.7207 5.43811C42.7066 5.07482 42.5631 4.72853 42.316 4.46183C42.1994 4.33978 42.058 4.24422 41.9012 4.18162C41.7445 4.11903 41.5761 4.09086 41.4075 4.09904C41.239 4.1071 41.0742 4.15128 40.9242 4.22857C40.7742 4.30586 40.6426 4.41447 40.5383 4.54704L36.8073 9.07211L33.0798 4.54704C32.9752 4.41436 32.8433 4.30569 32.6931 4.2284C32.5429 4.15111 32.3778 4.10699 32.2091 4.09904C32.0404 4.09122 31.872 4.11973 31.7153 4.18264C31.5587 4.24555 31.4173 4.34139 31.3009 4.46367C31.0547 4.72996 30.9117 5.07544 30.8978 5.43784C30.8838 5.80023 30.9998 6.15568 31.2248 6.4401L33.9512 9.74958H31.7402C31.0467 9.74958 30.4863 10.3732 30.4863 11.1454C30.4863 11.9085 31.0467 12.5413 31.7401 12.5413H35.5626V15.6246H31.3169Z" fill="var(--fill-0, black)"/>
  </g>
</svg>
