<svg preserveAspectRatio="none" width="100%" height="100%" overflow="visible" style="display: block;" viewBox="0 0 46 46" fill="none" xmlns="http://www.w3.org/2000/svg">
  <g id="&#230;&#178;&#159;&#233;&#128;&#154; 1">
    <path id="Vector" d="M31.6247 11.5C32.6413 11.5 33.6164 11.9039 34.3353 12.6228C35.0541 13.3416 35.458 14.3167 35.458 15.3333V32.5833C35.458 33.0867 35.3589 33.5852 35.1662 34.0503C34.9736 34.5154 34.6912 34.938 34.3353 35.2939C33.9793 35.6499 33.5567 35.9322 33.0916 36.1249C32.6265 36.3175 32.1281 36.4167 31.6247 36.4167H25.7712C25.5293 36.417 25.2965 36.5087 25.1195 36.6735L20.9508 40.5452C20.5961 40.875 20.1298 41.0583 19.6455 41.0583C19.1612 41.0583 18.6949 40.875 18.3403 40.5452L14.1715 36.6735C13.9945 36.5087 13.7617 36.417 13.5198 36.4167H7.66634C7.16294 36.4167 6.66447 36.3175 6.19939 36.1249C5.73431 35.9322 5.31172 35.6499 4.95577 35.2939C4.59981 34.938 4.31745 34.5154 4.1248 34.0503C3.93216 33.5852 3.83301 33.0867 3.83301 32.5833V15.3333C3.83301 14.8299 3.93216 14.3315 4.1248 13.8664C4.31745 13.4013 4.59981 12.9787 4.95577 12.6228C5.31172 12.2668 5.73431 11.9844 6.19939 11.7918C6.66447 11.5992 7.16294 11.5 7.66634 11.5H31.6247ZM31.6247 15.3333H7.66634V32.5833H13.5198C14.5913 32.5832 15.6319 32.9422 16.4753 33.603L16.782 33.8637L19.6455 36.5278L22.5109 33.8637C23.2959 33.1341 24.3027 32.6887 25.3706 32.5987L25.7731 32.5833H31.6247V15.3333Z" fill="var(--fill-0, black)"/>
    <path id="Vector_2" d="M38.3333 4.79167C39.3004 4.79136 40.2319 5.15661 40.941 5.8142C41.6502 6.47179 42.0845 7.37312 42.1571 8.3375L42.1667 8.625V25.2521C42.1661 25.7406 41.9791 26.2105 41.6437 26.5657C41.3083 26.9209 40.85 27.1347 40.3623 27.1633C39.8746 27.192 39.3944 27.0333 39.0198 26.7197C38.6452 26.4062 38.4044 25.9614 38.3467 25.4763L38.3333 25.2521V8.625H13.4167C12.9281 8.62446 12.4583 8.4374 12.103 8.10204C11.7478 7.76668 11.534 7.30834 11.5054 6.82066C11.4768 6.33298 11.6355 5.85277 11.949 5.47815C12.2626 5.10354 12.7073 4.86278 13.1924 4.80508L13.4167 4.79167H38.3333Z" fill="var(--fill-0, black)"/>
  </g>
</svg>
