<svg width="91" height="91" viewBox="0 0 91 91" fill="none" xmlns="http://www.w3.org/2000/svg">
<path d="M55.4531 76.7812H65.4062V79.625H55.4531V76.7812ZM55.4531 71.0938H65.4062V73.9375H55.4531V71.0938Z" fill="black"/>
<path d="M81.7578 51.4719L70.0984 44.0781H20.9016L9.24219 51.4719L10.8062 53.8891L18.6266 49.0547L15.0719 58.2969H19.9062V76.7812H22.75V58.2969H68.25V82.4688H19.9062V85.3125H71.0938V58.2969H75.9281L72.5156 48.9125L80.3359 53.7469L81.7578 51.4719ZM71.0938 55.4531H19.0531L22.3234 46.9219H68.6766L71.8047 55.4531H71.0938ZM27.0156 28.4375C30.1437 28.4375 32.7031 25.8781 32.7031 22.75C32.7031 19.6219 30.1437 17.0625 27.0156 17.0625C23.8875 17.0625 21.3281 19.6219 21.3281 22.75C21.3281 25.8781 23.8875 28.4375 27.0156 28.4375ZM27.0156 19.9062C28.5797 19.9062 29.8594 21.1859 29.8594 22.75C29.8594 24.3141 28.5797 25.5938 27.0156 25.5938C25.4516 25.5938 24.1719 24.3141 24.1719 22.75C24.1719 21.1859 25.4516 19.9062 27.0156 19.9062Z" fill="black"/>
<path d="M10.3797 26.589L11.5172 27.0156C12.0859 27.1578 12.7969 27.2999 13.3656 27.4421C13.5078 28.0109 13.7922 28.4375 13.9344 29.0062C13.5078 29.5749 13.2234 30.1437 12.9391 30.7125L12.3703 31.85L13.0812 32.8453C14.0766 34.2671 15.3563 35.5468 16.7781 36.5421L17.7734 37.2531L18.9109 36.5421C19.4797 36.2578 20.0484 35.9734 20.6172 35.5468C21.0437 35.8312 21.6125 35.9734 22.1813 36.1156C22.3234 36.8265 22.4656 37.3953 22.6078 37.964L22.8922 39.2437L24.1719 39.3859C25.3094 39.8125 26.1625 39.8125 27.0156 39.8125C27.8687 39.8125 28.7219 39.8125 29.7172 39.6703L30.9969 39.5281L31.2812 38.2484C31.4234 37.6796 31.5656 36.9687 31.7078 36.4C32.2766 36.2578 32.7031 35.9734 33.2719 35.8312C33.8406 36.2578 34.4094 36.5421 34.9781 36.8265L36.1156 37.5374L37.1109 36.8265C38.5328 35.8312 39.8125 34.5515 40.8078 33.1296L41.5187 32.1343L40.95 30.9968C40.6656 30.4281 40.3812 29.8593 39.9547 29.2906C40.2391 28.7218 40.3812 28.2953 40.5234 27.7265C41.2344 27.5843 41.8031 27.4421 42.3719 27.3L43.6516 27.0156L43.7937 25.7359C44.0781 24.4562 44.0781 23.6031 44.0781 22.75C44.0781 21.8968 44.0781 21.0437 43.9359 20.0484L43.7937 18.7687L42.5141 18.4843C41.9453 18.3421 41.2344 18.2 40.6656 18.0578C40.5234 17.489 40.2391 17.0625 40.0969 16.4937C40.5234 15.925 40.8078 15.3562 41.0922 14.7875L41.6609 13.65L40.95 12.6546C39.9547 11.2328 38.675 9.95308 37.2531 8.95776L36.2578 8.24683L35.1203 8.81558C34.5516 9.09995 33.9828 9.38433 33.4141 9.81089C32.8453 9.52651 32.4187 9.38433 31.85 9.24214C31.5656 8.5312 31.4234 7.82026 31.2812 7.25151L30.9969 6.11401L29.7172 5.97183C28.0109 5.68745 26.1625 5.68745 24.4563 5.97183L23.1766 6.11401L22.75 7.25151C22.6078 7.82026 22.4656 8.5312 22.3234 9.09995C21.7547 9.24214 21.3281 9.52651 20.7594 9.6687C20.1906 9.24214 19.6219 8.95776 19.0531 8.67339L18.7687 8.5312L17.3469 10.9484L17.7734 11.375L19.9062 12.6546L20.6172 13.0812L21.3281 12.7968C22.1812 12.3703 23.0344 11.9437 23.8875 11.8015L24.7406 11.5171L24.8828 10.664C25.025 9.95308 25.1672 9.24214 25.3094 8.67339C26.4469 8.5312 27.5844 8.5312 28.5797 8.67339C28.7219 9.24214 28.8641 9.95308 29.0062 10.664L29.1484 11.5171L30.0016 11.8015C30.9969 11.9437 31.85 12.2281 32.7031 12.7968L33.4141 13.2234L34.125 12.6546C34.6937 12.2281 35.2625 11.9437 35.8313 11.5171C36.6844 12.2281 37.5375 12.939 38.1062 13.7921C37.8219 14.3609 37.3953 14.9296 36.9687 15.4984L36.5422 16.2093L36.9687 17.0625C37.3953 17.9156 37.8219 18.7687 37.9641 19.6218L38.2484 20.4749L39.1016 20.6171C39.8125 20.7593 40.3812 20.9015 41.0922 21.0437C41.0922 21.6124 41.2344 22.1812 41.2344 22.75C41.2344 23.3187 41.2344 23.8875 41.0922 24.4562C40.5234 24.5984 39.8125 24.7406 39.1016 24.8828L38.2484 25.025L37.9641 25.8781C37.6797 26.7312 37.3953 27.5843 36.9687 28.4375L36.5422 29.1484L36.9687 29.8593C37.3953 30.4281 37.8219 30.9968 38.1062 31.5656C37.3953 32.4187 36.6844 33.1296 35.8313 33.8406C35.2625 33.5562 34.8359 33.1296 34.125 32.8453L33.4141 32.4187L32.7031 32.7031C31.85 33.1296 30.9969 33.5562 30.1438 33.6984L29.2906 33.9828L29.1484 34.8359C29.0062 35.5468 28.8641 36.1156 28.7219 36.8265C27.5844 36.9687 26.4469 36.9687 25.4516 36.8265C25.3094 36.2578 25.1672 35.5468 25.025 34.8359L24.8828 33.9828L24.0297 33.6984C23.1766 33.414 22.3234 33.1296 21.4703 32.7031L20.7594 32.2765L19.9062 32.8453C19.3375 33.2718 18.7687 33.5562 18.2 33.8406C17.3469 33.1296 16.6359 32.4187 15.925 31.5656C16.2094 30.9968 16.6359 30.4281 17.0625 29.8593L17.4891 29.1484L17.0625 28.4375C16.6359 27.5843 16.2094 26.7312 16.0672 25.8781L15.7828 25.025L14.9297 24.8828C14.2188 24.7406 13.65 24.5984 12.9391 24.4562C12.7969 23.8875 12.7969 23.3187 12.7969 22.75C12.7969 22.1812 12.7969 21.6124 12.9391 21.0437C13.5078 20.9015 14.2188 20.7593 14.9297 20.6171L15.7828 20.4749L16.0672 19.6218C16.3516 18.7687 16.6359 17.9156 17.0625 17.0625L17.4891 16.3515L16.9203 15.6406C16.3516 14.7875 15.925 14.0765 15.6406 13.5078L15.4984 13.2234L13.0812 14.6453L13.2234 14.9296C13.5078 15.4984 13.7922 16.0671 14.2188 16.6359C13.9344 17.0625 13.7922 17.6312 13.65 18.2C12.7969 18.2 12.2281 18.3421 11.5172 18.4843L10.3797 18.9109L10.2375 20.1906C10.0953 21.0437 9.95312 21.8968 9.95312 22.75C9.95312 23.6031 9.95312 24.4562 10.0953 25.4515L10.3797 26.589ZM59.7188 31.139V34.9781L52.1828 27.4421L50.1922 29.4328L61.1406 40.3812L72.0891 29.4328L70.0984 27.4421L62.5625 34.9781V31.139C62.5625 23.3187 56.1641 17.0625 48.3438 17.0625V19.9062C54.6 19.9062 59.7188 25.025 59.7188 31.139Z" fill="black"/>
</svg>
