<svg width="95" height="74" viewBox="0 0 95 74" fill="none" xmlns="http://www.w3.org/2000/svg">
<g clip-path="url(#clip0_19442_1335)">
<path d="M48.6626 45.3917C43.7204 45.3917 39.5386 41.1958 39.5386 36.237C39.5386 31.2783 43.7204 27.0824 48.6626 27.0824C53.6048 27.0824 57.7867 31.2783 57.7867 36.237C57.7867 41.1958 53.6048 45.3917 48.6626 45.3917ZM48.6626 30.1339C45.2411 30.1339 42.5799 32.804 42.5799 36.237C42.5799 39.67 45.2411 42.3401 48.6626 42.3401C52.0841 42.3401 54.7453 39.67 54.7453 36.237C54.7453 32.804 51.704 30.1339 48.6626 30.1339ZM24.712 18.6906C19.7698 18.6906 15.5879 14.4947 15.5879 9.53599C15.5879 4.57722 19.7698 0.381348 24.712 0.381348C29.6542 0.381348 33.836 4.57722 33.836 9.53599C33.836 14.4947 29.6542 18.6906 24.712 18.6906ZM24.712 3.43289C21.2904 3.43289 18.6292 6.103 18.6292 9.53599C18.6292 12.969 21.2904 15.6391 24.712 15.6391C28.1335 15.6391 30.7947 12.969 30.7947 9.53599C30.7947 6.103 28.1335 3.43289 24.712 3.43289ZM58.9272 24.4123C55.1255 24.4123 51.704 21.3607 51.704 17.1649C51.704 12.969 54.7453 9.91743 58.9272 9.91743C63.1091 9.91743 66.1504 12.969 66.1504 17.1649C66.1504 21.3607 62.7289 24.4123 58.9272 24.4123ZM58.9272 12.969C56.6462 12.969 54.7453 14.8762 54.7453 17.1649C54.7453 19.4535 56.6462 21.3607 58.9272 21.3607C61.2082 21.3607 63.1091 19.4535 63.1091 17.1649C63.1091 14.8762 61.2082 12.969 58.9272 12.969ZM68.4314 49.2061C67.6711 49.2061 67.2909 49.2061 66.5306 48.8246C64.6297 48.4432 63.1091 47.2989 61.9685 45.3917C60.828 43.8659 60.828 41.9587 61.2082 40.0515C61.9685 36.237 66.1504 33.9484 69.9521 34.7112C73.7538 35.4741 76.0348 39.67 75.2745 43.4844C74.8943 45.3917 73.7538 46.9174 71.853 48.0618C71.0926 48.8246 69.5719 49.2061 68.4314 49.2061ZM68.4314 37.7628C66.5306 37.7628 64.6297 38.9071 64.2496 41.1958C63.8694 43.4844 65.0099 45.7731 67.2909 46.536C69.5719 47.2989 71.853 45.7731 72.6133 43.4844C72.9935 41.1958 71.853 38.9071 69.5719 38.1442C69.1918 37.7628 68.8116 37.7628 68.4314 37.7628ZM38.0179 61.7937C34.2162 61.7937 30.7947 58.7422 30.7947 54.5463C30.7947 50.3504 34.2162 47.2989 38.0179 47.2989C41.8196 47.2989 45.2411 50.3504 45.2411 54.5463C45.2411 58.7422 42.1997 61.7937 38.0179 61.7937ZM38.0179 50.3504C35.7369 50.3504 33.836 52.2576 33.836 54.5463C33.836 56.835 35.7369 58.7422 38.0179 58.7422C40.2989 58.7422 42.1997 56.835 42.1997 54.5463C42.1997 52.2576 40.2989 50.3504 38.0179 50.3504Z" fill="black"/>
<path d="M48.6617 74.0001C28.8929 74.0001 12.9258 57.9794 12.9258 38.1444C12.9258 30.5155 15.2068 23.2681 19.7688 17.165L22.0498 18.6908C17.868 24.4124 15.587 31.2784 15.587 38.1444C15.587 56.4537 30.4136 70.9485 48.2815 70.9485C66.1495 70.9485 80.9761 56.0722 80.9761 38.1444C80.9761 20.2166 66.1495 5.34027 48.2815 5.34027C43.3393 5.34027 38.3971 6.4846 33.8351 8.77326L33.0748 6.10316C38.017 3.8145 43.3393 2.67017 48.6617 2.67017C68.4305 2.67017 84.3976 18.6908 84.3976 38.5258C84.0174 57.9794 68.0503 74.0001 48.6617 74.0001Z" fill="black"/>
<path d="M34.2161 51.4948C29.6541 47.6804 27.373 41.9587 27.373 36.2371C27.373 24.7938 36.4971 15.6392 47.9022 15.6392C49.803 15.6392 52.0841 16.0206 53.9849 16.402L53.2246 19.0721C51.7039 18.6907 49.803 18.3093 47.9022 18.3093C38.0178 18.3093 30.4144 26.3196 30.4144 35.8557C30.4144 40.8144 32.6954 45.7732 36.4971 49.2062L34.2161 51.4948ZM47.522 56.835C46.3815 56.835 45.241 56.835 44.1005 56.4536L44.4807 53.7835C45.6212 53.7835 46.3815 54.1649 47.522 54.1649C53.6047 54.1649 59.3073 51.1134 62.7288 45.7732L65.0098 47.299C61.2081 53.0206 54.7452 56.835 47.522 56.835ZM68.0512 36.2371H65.0098C65.0098 31.2783 63.109 27.0825 59.6874 23.6495L61.5883 21.7423C65.7701 25.5567 68.0512 30.5155 68.0512 36.2371Z" fill="black"/>
</g>
<defs>
<clipPath id="clip0_19442_1335">
<rect width="95" height="74" fill="white"/>
</clipPath>
</defs>
</svg>
