<svg width="95" height="86" viewBox="0 0 95 86" fill="none" xmlns="http://www.w3.org/2000/svg">
<path d="M39.2486 46.6773H38.387C36.3431 46.5653 34.4236 45.6617 33.037 44.1589C31.6503 42.656 30.9058 40.6725 30.9619 38.6302C31.0181 36.5879 31.8704 34.648 33.3375 33.2233C34.8046 31.7986 36.7708 31.0015 38.8178 31.0015C40.8648 31.0015 42.831 31.7986 44.2981 33.2233C45.7653 34.648 46.6175 36.5879 46.6737 38.6302C46.7298 40.6725 45.9853 42.656 44.5987 44.1589C43.212 45.6617 41.2925 46.5653 39.2486 46.6773ZM39.2486 33.9848C38.4706 33.9871 37.7044 34.1752 37.0141 34.5336C36.3238 34.892 35.7296 35.4101 35.281 36.0446C34.8325 36.6792 34.5428 37.4117 34.436 38.181C34.3292 38.9502 34.4086 39.7338 34.6674 40.4661C34.9262 41.1985 35.357 41.8583 35.9237 42.3904C36.4904 42.9226 37.1765 43.3115 37.9246 43.5248C38.6728 43.738 39.4612 43.7693 40.224 43.6161C40.9868 43.4629 41.7017 43.1296 42.309 42.6442C42.8082 42.2458 43.223 41.7522 43.5291 41.1921C43.8352 40.632 44.0264 40.0167 44.0917 39.3821C44.2334 38.1001 43.8592 36.8144 43.0513 35.8078C42.2433 34.8012 41.0679 34.1561 39.7834 34.0145L39.2486 33.9848Z" fill="black"/>
<path d="M39.2654 51.8965C38.7706 51.9274 38.2745 51.9274 37.7798 51.8965C34.3626 51.7035 31.1556 50.1881 28.8402 47.6724C26.5248 45.1566 25.2835 41.8389 25.3803 38.4242C25.477 35.0095 26.904 31.767 29.3581 29.3859C31.8122 27.0047 35.0999 25.6726 38.5226 25.6726C41.9452 25.6726 45.2329 27.0047 47.687 29.3859C50.1411 31.767 51.5681 35.0095 51.6649 38.4242C51.7616 41.8389 50.5204 45.1566 48.2049 47.6724C45.8895 50.1881 42.6825 51.7035 39.2654 51.8965ZM39.2654 28.7358C37.3126 28.7416 35.4033 29.3114 33.7677 30.3763C32.1322 31.4412 30.8405 32.9558 30.0484 34.7373C29.2562 36.5188 28.9976 38.491 29.3037 40.416C29.6097 42.3409 30.4674 44.1363 31.7732 45.5855C33.079 47.0347 34.7771 48.0757 36.6626 48.583C38.5481 49.0902 40.5404 49.042 42.399 48.4441C44.2576 47.8462 45.9032 46.7242 47.137 45.2136C48.3709 43.7029 49.1404 41.8681 49.3526 39.9306C49.6408 37.2759 48.8654 34.6152 47.1955 32.5291C45.5256 30.4429 43.0967 29.1006 40.439 28.7951C40.0343 28.7538 39.6274 28.7389 39.2208 28.7506L39.2654 28.7358Z" fill="black"/>
<path d="M27.8702 64.4556C27.5834 64.4777 27.2953 64.4777 27.0085 64.4556C25.4679 64.2893 24.0111 63.6713 22.8221 62.6796C21.633 61.6879 20.7648 60.3668 20.3272 58.8832C19.8895 57.3995 19.9019 55.8197 20.3629 54.3431C20.8239 52.8664 21.7127 51.5592 22.9173 50.5862C24.1218 49.6133 25.5881 49.0182 27.1312 48.8761C28.6742 48.734 30.2249 49.0513 31.5874 49.7879C32.95 50.5245 34.0635 51.6473 34.7873 53.0149C35.5112 54.3824 35.813 55.9332 35.6547 57.4718C35.4434 59.3844 34.535 61.1528 33.1024 62.4405C31.6698 63.7282 29.8129 64.4454 27.885 64.4556H27.8702ZM27.8702 51.7632C26.7885 51.78 25.7432 52.1556 24.899 52.8308C23.8961 53.6414 23.2551 54.8151 23.1159 56.0957C22.9768 57.3763 23.3507 58.6598 24.1562 59.6663C24.7683 60.3783 25.5738 60.8983 26.4754 61.1638C27.3771 61.4292 28.3364 61.4287 29.2377 61.1623C30.1391 60.8958 30.944 60.3748 31.5553 59.6622C32.1667 58.9495 32.5585 58.0755 32.6835 57.1456C32.8169 55.8645 32.4372 54.5827 31.6273 53.5799C30.8174 52.5771 29.643 51.9347 28.3604 51.7928L27.8702 51.7632Z" fill="black"/>
<path d="M27.8698 69.6896H26.3842C23.1706 69.3234 20.2062 67.7838 18.0617 65.3671C15.9171 62.9504 14.744 59.8274 14.7679 56.5992C14.7919 53.3709 16.0113 50.2657 18.1915 47.8809C20.3717 45.4962 23.3586 44.0006 26.5773 43.682C26.9713 43.6466 27.3633 43.7689 27.6669 44.0219C27.9706 44.275 28.1611 44.6381 28.1966 45.0313C28.2321 45.4246 28.1096 45.8158 27.856 46.1189C27.6025 46.422 27.2387 46.6121 26.8447 46.6475C24.5385 46.8694 22.3781 47.8734 20.7237 49.4923C19.0693 51.1112 18.0207 53.2471 17.7528 55.5441C17.5221 57.8533 18.0953 60.1714 19.376 62.1083C20.6567 64.0452 22.5668 65.4827 24.7849 66.1789C27.003 66.875 29.3936 66.7874 31.5545 65.9307C33.7154 65.074 35.5147 63.5006 36.6497 61.4751C36.8467 61.131 37.1725 60.8791 37.5556 60.7748C37.9387 60.6706 38.3476 60.7224 38.6924 60.9191C39.0371 61.1157 39.2895 61.441 39.394 61.8233C39.4984 62.2057 39.4465 62.6138 39.2495 62.9579C38.1226 64.9876 36.4745 66.6811 34.4744 67.8643C32.4744 69.0474 30.1947 69.6774 27.8698 69.6896ZM46.6329 49.2572C46.406 49.2566 46.1823 49.2042 45.9788 49.104C45.7754 49.0038 45.5977 48.8583 45.4593 48.6789C45.2197 48.368 45.1133 47.9749 45.1634 47.5858C45.2135 47.1968 45.416 46.8434 45.7267 46.603L60.5084 35.1413L61.5929 34.311C63.8081 32.9313 65.6417 31.0197 66.9262 28.7506C67.6398 27.2793 67.942 25.6428 67.8008 24.0142C67.6596 22.3856 67.0802 20.8253 66.1239 19.4982C64.8389 17.8065 63.0727 16.5408 61.0559 15.8663C59.0391 15.1918 56.8654 15.1398 54.8185 15.7172C51.4314 16.5772 48.5493 18.9941 45.7564 21.322C44.657 22.2413 43.528 23.1755 42.3841 24.0206L33.4705 30.5596C33.3146 30.6892 33.1338 30.7856 32.9392 30.8429C32.7446 30.9001 32.5403 30.9169 32.3389 30.8923C32.1375 30.8677 31.9433 30.8022 31.7683 30.6998C31.5933 30.5975 31.4411 30.4604 31.3212 30.2971C31.2012 30.1337 31.1161 29.9476 31.071 29.7502C31.0259 29.5528 31.0217 29.3482 31.0589 29.1492C31.096 28.9501 31.1736 28.7607 31.2869 28.5927C31.4001 28.4247 31.5467 28.2817 31.7175 28.1724L40.6311 21.6334C41.7156 20.8475 42.7555 19.9727 43.8697 19.0534C46.9151 16.503 50.0646 13.8637 54.0906 12.8406C56.7001 12.1058 59.4712 12.1756 62.0403 13.0409C64.6093 13.9062 66.8562 15.5265 68.486 17.6893C69.7939 19.4361 70.5941 21.509 70.7985 23.6801C71.0029 25.8513 70.6037 28.0367 69.6448 29.9961C68.1641 32.7114 66.0173 35.0072 63.4053 36.6686C63.0488 36.9355 62.6922 37.2024 62.3505 37.4841L47.5391 48.931C47.2817 49.1372 46.9629 49.2519 46.6329 49.2572ZM50.5103 65.2413H49.6487C47.6399 64.9465 45.8239 63.8857 44.5826 62.2821C43.3412 60.6785 42.7713 58.6569 42.9925 56.6425C43.2138 54.6281 44.209 52.7777 45.769 51.4806C47.3289 50.1835 49.332 49.5406 51.3571 49.6872C52.3811 49.7942 53.3735 50.1037 54.2765 50.5975C55.1794 51.0914 55.9747 51.7598 56.6161 52.5637C57.2607 53.3657 57.7407 54.2865 58.0288 55.2736C58.3168 56.2608 58.4072 57.2948 58.2948 58.3168C58.0759 60.2238 57.1613 61.9837 55.7256 63.2608C54.2899 64.5379 52.4335 65.2429 50.5103 65.2413ZM50.5103 52.5637C49.4031 52.5639 48.329 52.9405 47.4648 53.6313C46.5808 54.3361 45.9692 55.325 45.7342 56.4296C45.4992 57.5342 45.6554 58.6859 46.1762 59.6884C46.6969 60.6908 47.55 61.4819 48.5899 61.9267C49.6298 62.3716 50.7921 62.4425 51.8785 62.1276C52.965 61.8126 53.9083 61.1312 54.5476 60.1996C55.187 59.268 55.4827 58.1438 55.3843 57.0189C55.286 55.894 54.7997 54.838 54.0084 54.0309C53.2171 53.2239 52.1698 52.7158 51.0451 52.5934L50.5103 52.5637Z" fill="black"/>
<path d="M50.5095 70.5496H49.0239C45.5736 70.1692 42.4156 68.4379 40.243 65.7358C38.0705 63.0336 37.061 59.5815 37.4362 56.1372C37.6185 54.4791 38.1231 52.8724 38.9218 51.4072C39.1188 51.0611 39.4455 50.8073 39.8299 50.7017C40.2144 50.596 40.6252 50.6471 40.9719 50.8437C41.3186 51.0404 41.5729 51.3664 41.6788 51.7501C41.7846 52.1339 41.7334 52.5439 41.5364 52.8899C40.5497 54.8109 40.2057 56.997 40.5549 59.1274C40.9042 61.2578 41.9283 63.2204 43.4771 64.7273C45.0258 66.2342 47.0176 67.206 49.1603 67.5002C51.303 67.7944 53.4838 67.3955 55.3827 66.3619C57.2816 65.3284 58.7986 63.7147 59.7112 61.7576C60.6239 59.8004 60.8841 57.6029 60.4537 55.4873C60.0232 53.3717 58.9248 51.4496 57.3196 50.0027C55.7144 48.5559 53.6869 47.6606 51.5345 47.4482C51.1451 47.4035 50.7892 47.207 50.5443 46.9014C50.2994 46.5959 50.1854 46.2062 50.2272 45.8172C50.272 45.4285 50.4689 45.0732 50.775 44.8288C51.0811 44.5844 51.4716 44.4707 51.8613 44.5124C55.1645 44.8968 58.1972 46.5219 60.3433 49.0574C62.4894 51.593 63.588 54.8488 63.4159 58.1636C63.2437 61.4783 61.8139 64.6034 59.4167 66.9039C57.0195 69.2045 53.8348 70.508 50.5095 70.5496Z" fill="black"/>
<path d="M57.8343 67.8808C57.6086 67.882 57.3856 67.8319 57.1823 67.7343C56.9789 67.6367 56.8005 67.4941 56.6606 67.3173C56.421 67.0064 56.3146 66.6134 56.3647 66.2243C56.4149 65.8352 56.6174 65.4818 56.928 65.2415L71.784 53.7798L72.8685 52.9642C75.0445 51.5794 76.8496 49.6862 78.1275 47.4484C78.8412 45.977 79.1434 44.3406 79.0022 42.712C78.861 41.0834 78.2816 39.5231 77.3253 38.196C76.0421 36.5016 74.2768 35.233 72.2598 34.5558C70.2429 33.8786 68.0682 33.8244 66.0199 34.4001C65.8262 34.467 65.6206 34.493 65.4163 34.4768C65.2119 34.4605 65.0131 34.4021 64.8325 34.3054C64.6518 34.2087 64.4931 34.0757 64.3665 33.9148C64.2398 33.754 64.1479 33.5686 64.0965 33.3706C64.0451 33.1725 64.0353 32.9659 64.0677 32.7639C64.1002 32.5619 64.1742 32.3687 64.2851 32.1966C64.396 32.0245 64.5414 31.8772 64.7121 31.7639C64.8828 31.6506 65.0752 31.5738 65.2771 31.5384C67.8866 30.8035 70.6578 30.8733 73.2268 31.7386C75.7959 32.6039 78.0428 34.2243 79.6726 36.387C80.9776 38.1323 81.7761 40.2025 81.9805 42.3707C82.1849 44.5389 81.7873 46.7214 80.8313 48.6791C79.3511 51.3986 77.2044 53.6993 74.5918 55.3663L73.537 56.167L58.6811 67.6287C58.4309 67.7965 58.1356 67.8844 57.8343 67.8808ZM23.5169 47.3594C23.1966 47.3586 22.8851 47.2544 22.6289 47.0625C22.3727 46.8705 22.1855 46.601 22.0953 46.2942C22.0051 45.9874 22.0166 45.6597 22.1283 45.36C22.2399 45.0603 22.4456 44.8046 22.7147 44.6311L27.5578 41.5174C27.8927 41.3089 28.2968 41.2418 28.6813 41.3308C29.0657 41.4198 29.3991 41.6576 29.6079 41.9918C29.8167 42.3261 29.8839 42.7295 29.7948 43.1132C29.7056 43.4969 29.4674 43.8296 29.1325 44.038L24.3043 47.0777C24.0743 47.2449 23.801 47.3427 23.5169 47.3594Z" fill="black"/>
</svg>
